<svg width="1027" height="798" viewBox="0 0 1027 798" fill="none" xmlns="http://www.w3.org/2000/svg">
<g clip-path="url(#clip0_310_18)">
<path d="M573.243 763.086C777.336 763.086 942.786 597.636 942.786 393.543C942.786 189.45 777.336 24 573.243 24C369.15 24 203.7 189.45 203.7 393.543C203.7 597.636 369.15 763.086 573.243 763.086Z" fill="#F2F2F2"/>
<path d="M686.188 254.842C739.263 254.842 782.289 211.816 782.289 158.741C782.289 105.666 739.263 62.6399 686.188 62.6399C633.113 62.6399 590.087 105.666 590.087 158.741C590.087 211.816 633.113 254.842 686.188 254.842Z" fill="#FF6584"/>
<path d="M283.313 95.8117L285.94 150.576C296.829 165.099 308.576 181.718 320.17 199.831L321.825 116.283L322.739 116.867C309.328 107.287 295.695 99.9569 282.4 95.3041L283.313 95.8117Z" fill="#6C63FF"/>
<path d="M284.025 148.032L281.481 94.9831C266.549 89.8907 252.061 88.2014 238.818 90.5631C238.129 90.686 237.452 90.8274 236.776 90.9709C240.141 94.5809 259.75 115.901 284.025 148.032Z" fill="#6C63FF"/>
<path d="M404.591 213.367L405.472 214.208C401.853 207.402 398.017 200.784 393.964 194.356L369.27 291.519L368.853 291.151C370.638 295.413 372.336 299.647 373.946 303.851L404.591 213.367Z" fill="#6C63FF"/>
<path d="M366.973 158.128L367.882 158.856C354.827 143.387 339.985 129.519 323.668 117.542L321.98 202.682C332.769 219.708 342.428 236.479 350.958 252.993L366.973 158.128Z" fill="#6C63FF"/>
<path d="M187.845 184.709C189.232 199.06 192.066 213.233 196.303 227.014L343.557 242.203C335.869 228.027 327.934 214.727 320.23 202.606L188.219 185.867L187.845 184.709Z" fill="#6C63FF"/>
<path d="M201.66 242.906L201.263 241.75L350.297 254.998C348.497 251.476 346.677 248.001 344.836 244.573L197.038 229.328L196.65 228.171C198.14 233.028 199.809 237.94 201.66 242.906Z" fill="#6C63FF"/>
<path d="M392.286 192.33L393.182 193.12C385.793 181.499 377.628 170.39 368.743 159.868L352.513 256.016C358.138 267.061 363.233 277.95 367.798 288.684L392.286 192.33Z" fill="#6C63FF"/>
<path d="M389.134 352.941C395.057 378.572 397.301 402.807 395.82 425.377C404.154 407.619 435.848 334.054 424.001 265.493L389.134 352.941Z" fill="#6C63FF"/>
<path d="M228.999 294.724C236.885 305.346 245.474 315.428 254.708 324.902L254.348 323.618L386.919 350.891C383.47 336.579 379.166 322.487 374.029 308.69L228.999 294.724Z" fill="#6C63FF"/>
<path d="M282.881 148.926C256.609 114.17 235.879 92.2021 235.58 91.8876L235.922 91.1554C215.985 95.6816 201.908 109.246 194.163 128.88L282.881 148.926Z" fill="#6C63FF"/>
<path d="M375.173 307.112C375.662 308.42 376.16 309.73 376.633 311.032C381.186 323.505 385.056 336.217 388.227 349.11L422.764 262.491L423.607 263.337C421.421 251.284 417.716 239.557 412.581 228.435C410.544 224.074 408.411 219.779 406.183 215.55L375.173 307.112Z" fill="#6C63FF"/>
<path d="M318.687 200.191C307.212 182.292 295.598 165.872 284.834 151.52L194.08 131.013L193.772 129.867C188.107 144.787 186.035 163.116 187.751 183.588L318.687 200.191Z" fill="#6C63FF"/>
<path d="M387.456 353.166L255.855 326.093C311.209 382.916 388.653 426.495 393.596 429.249C395.902 404.214 393.286 378.498 387.456 353.166Z" fill="#6C63FF"/>
<path d="M373.097 306.357L373.127 306.27C366.799 289.588 359.578 273.259 351.494 257.354L202.092 244.074C204.629 250.79 207.496 257.579 210.692 264.44C215.349 274.214 220.887 283.543 227.238 292.312L373.097 306.357Z" fill="#6C63FF"/>
<path d="M563.143 280.273L530.237 324.127C529.36 342.258 527.807 362.55 525.184 383.895L579.747 320.603L580.079 321.635C575.86 305.703 570.035 291.363 562.763 279.299L563.143 280.273Z" fill="#6C63FF"/>
<path d="M530.384 320.946L562.26 278.466C554.008 265.021 543.927 254.479 532.221 247.851C531.612 247.506 531 247.183 530.388 246.863C530.677 251.789 532.181 280.717 530.384 320.946Z" fill="#6C63FF"/>
<path d="M581.571 448.166L581.713 449.375C583.267 441.825 584.533 434.282 585.512 426.745L504.521 485.83L504.434 485.279C503.09 489.701 501.698 494.044 500.256 498.31L581.571 448.166Z" fill="#6C63FF"/>
<path d="M587.83 381.628L588.066 382.768C587.877 362.527 585.291 342.38 580.363 322.748L524.76 387.246C522.21 407.24 518.953 426.318 514.989 444.478L587.83 381.628Z" fill="#6C63FF"/>
<path d="M432.913 287.85C424.829 299.787 417.971 312.511 412.445 325.827L516.171 431.446C519.292 415.625 521.663 400.32 523.46 386.071L432.463 288.98L432.913 287.85Z" fill="#6C63FF"/>
<path d="M406.435 341.484L406.867 340.341L513.202 445.6C514.062 441.739 514.876 437.902 515.645 434.087L411.536 328.079L411.975 326.939C410.024 331.631 408.178 336.479 406.435 341.484Z" fill="#6C63FF"/>
<path d="M585.511 424.114L585.698 425.294C587.419 411.631 588.216 397.867 588.084 384.097L514.258 447.797C511.547 459.891 508.526 471.528 505.195 482.706L585.511 424.114Z" fill="#6C63FF"/>
<path d="M480.644 545.805C468.858 569.324 455.129 589.42 439.593 605.859C457.338 597.498 528.67 561.054 563.274 500.693L480.644 545.805Z" fill="#6C63FF"/>
<path d="M394.441 398.831C393.74 412.042 393.925 425.285 394.994 438.471L395.536 437.253L480.245 542.814C486.718 529.591 492.391 515.992 497.235 502.09L394.441 398.831Z" fill="#6C63FF"/>
<path d="M528.933 320.906C530.866 277.38 528.911 247.238 528.882 246.806L529.612 246.46C511.37 237.23 491.877 238.699 473.389 248.88L528.933 320.906Z" fill="#6C63FF"/>
<path d="M499.121 501.604C498.664 502.923 498.212 504.25 497.746 505.554C493.297 518.064 488.17 530.323 482.389 542.277L564.235 497.591L564.345 498.781C570.349 488.103 574.975 476.708 578.114 464.867C579.327 460.209 580.424 455.541 581.405 450.862L499.121 501.604Z" fill="#6C63FF"/>
<path d="M523.813 383.226C526.391 362.122 527.919 342.068 528.782 324.148L471.964 250.47L472.458 249.392C458.578 257.269 445.292 270.065 433.557 286.927L523.813 383.226Z" fill="#6C63FF"/>
<path d="M479.208 544.909L395.119 440.12C401.509 519.19 433.36 602.149 435.41 607.423C453.154 589.612 467.542 568.138 479.208 544.909Z" fill="#6C63FF"/>
<path d="M498.004 499.698L498.082 499.65C503.849 482.766 508.702 465.584 512.62 448.177L406.023 342.659C403.693 349.45 401.571 356.507 399.657 363.83C397.009 374.328 395.324 385.046 394.624 395.85L498.004 499.698Z" fill="#6C63FF"/>
<path d="M235.04 338.823L254.465 390.093C269.31 400.539 285.619 412.714 302.244 426.356L277.993 346.388L279.042 346.66C263.327 341.695 248.097 338.938 234.014 338.622L235.04 338.823Z" fill="#6C63FF"/>
<path d="M251.858 388.265L233.041 338.601C217.267 338.373 202.966 341.245 191.102 347.584C190.484 347.914 189.884 348.258 189.286 348.603C193.602 350.996 218.84 365.211 251.858 388.265Z" fill="#6C63FF"/>
<path d="M386.715 413.135L387.813 413.662C382.267 408.308 376.574 403.2 370.732 398.339L377.281 498.377L376.769 498.156C379.785 501.658 382.708 505.159 385.539 508.66L386.715 413.135Z" fill="#6C63FF"/>
<path d="M333.864 372.229L334.954 372.64C317.757 361.964 299.355 353.363 280.135 347.015L304.846 428.508C320.37 441.365 334.74 454.329 347.957 467.398L333.864 372.229Z" fill="#6C63FF"/>
<path d="M171.725 452.876C177.48 466.095 184.556 478.699 192.845 490.495L337.582 459.424C325.89 448.319 314.232 438.123 303.159 428.976L172.439 453.861L171.725 452.876Z" fill="#6C63FF"/>
<path d="M202.852 503.953L202.117 502.976L347.948 469.509C345.148 466.716 342.342 463.974 339.532 461.282L194.26 492.468L193.533 491.487C196.451 495.647 199.557 499.802 202.852 503.953Z" fill="#6C63FF"/>
<path d="M368.51 396.931L369.606 397.406C358.987 388.638 347.788 380.596 336.086 373.336L350.37 469.793C359.133 478.558 367.345 487.339 375.004 496.136L368.51 396.931Z" fill="#6C63FF"/>
<path d="M415.157 550.652C428.712 573.197 438.337 595.551 443.905 617.474C446.342 598.01 453.746 518.25 421.286 456.709L415.157 550.652Z" fill="#6C63FF"/>
<path d="M244.869 544.783C255.652 552.447 266.937 559.381 278.647 565.537L277.908 564.427L412.417 549.387C404.713 536.842 396.263 524.77 387.114 513.236L244.869 544.783Z" fill="#6C63FF"/>
<path d="M251.047 389.47C215.317 364.536 188.812 350.052 188.431 349.845L188.53 349.043C170.968 359.51 161.774 376.761 160.477 397.828L251.047 389.47Z" fill="#6C63FF"/>
<path d="M387.714 511.383C388.583 512.475 389.462 513.567 390.314 514.659C398.499 525.114 406.109 536.007 413.11 547.289L419.182 454.236L420.246 454.78C414.441 443.993 407.292 433.985 398.971 424.995C395.686 421.478 392.33 418.052 388.904 414.719L387.714 511.383Z" fill="#6C63FF"/>
<path d="M300.945 427.156C284.5 413.681 268.379 401.655 253.706 391.333L161.057 399.882L160.411 398.887C159.634 414.828 163.33 432.9 171.289 451.839L300.945 427.156Z" fill="#6C63FF"/>
<path d="M413.63 551.385L280.106 566.314C350.313 603.245 437.434 620.752 442.987 621.844C437.441 597.322 427.005 573.674 413.63 551.385Z" fill="#6C63FF"/>
<path d="M385.506 511.306L385.508 511.214C374.334 497.305 362.418 484.007 349.814 471.38L203.624 504.929C208.112 510.533 212.937 516.104 218.098 521.64C225.548 529.497 233.698 536.657 242.449 543.033L385.506 511.306Z" fill="#6C63FF"/>
<path d="M1027 652.125C1027 696.445 799.007 774.976 517.764 774.976C236.521 774.976 8.52832 696.445 8.52832 652.125C8.52832 607.805 236.521 614.477 517.764 614.477C799.007 614.477 1027 607.805 1027 652.125Z" fill="#3F3D56"/>
<path opacity="0.1" d="M1027 652.125C1027 696.445 799.007 774.976 517.764 774.976C236.521 774.976 8.52832 696.445 8.52832 652.125C8.52832 607.805 236.521 614.477 517.764 614.477C799.007 614.477 1027 607.805 1027 652.125Z" fill="black"/>
<path d="M517.764 732.374C799.007 732.374 1027 696.445 1027 652.125C1027 607.805 799.007 571.876 517.764 571.876C236.521 571.876 8.52832 607.805 8.52832 652.125C8.52832 696.445 236.521 732.374 517.764 732.374Z" fill="#3F3D56"/>
<path opacity="0.1" d="M606.051 568.247C606.051 616.533 538.746 601.598 456.339 601.598C373.931 601.598 307.626 616.533 307.626 568.247C307.626 519.961 374.922 509.46 457.33 509.46C539.737 509.46 606.051 519.961 606.051 568.247Z" fill="black"/>
<path d="M606.051 556.358C606.051 604.644 538.746 589.709 456.339 589.709C373.931 589.709 307.626 604.644 307.626 556.358C307.626 508.073 374.922 497.571 457.33 497.571C539.737 497.571 606.051 508.073 606.051 556.358Z" fill="#3F3D56"/>
<path d="M340.948 423.496C342.761 422.205 344.761 421.202 346.879 420.521C360.308 415.524 374.379 412.461 388.67 411.424C401.097 410.543 414.565 411.589 424.27 419.399C425.78 420.507 427.015 421.946 427.882 423.606C429.103 426.241 428.733 429.304 428.337 432.181C428.249 433.297 427.967 434.389 427.506 435.409C426.2 437.896 422.984 438.767 420.191 438.469C417.398 438.171 414.777 436.989 412.023 436.441C410.317 436.144 408.593 435.968 406.863 435.916L389.585 434.98C378.841 434.399 367.955 433.827 357.416 435.995C354.172 436.578 351.037 437.658 348.122 439.198C345.715 440.549 344.094 442.488 341.86 439.992C337.936 435.607 335.764 427.546 340.948 423.496Z" fill="#2F2E41"/>
<path d="M367.723 431.136C367.723 431.136 390.962 420.719 399.777 432.739C408.592 444.76 394.969 439.951 394.969 439.951L379.743 444.76L362.915 441.554L367.723 431.136Z" fill="#F2F2F2"/>
<path d="M368.925 423.523C368.925 423.523 372.13 438.749 369.726 442.756C367.322 446.763 383.349 452.372 383.349 452.372L398.575 445.962C398.575 445.962 394.569 421.119 398.575 416.311L368.925 423.523Z" fill="#FFB9B9"/>
<path opacity="0.1" d="M368.925 423.523C368.925 423.523 372.13 438.749 369.726 442.756C367.322 446.763 383.349 452.372 383.349 452.372L398.575 445.962C398.575 445.962 394.569 421.119 398.575 416.311L368.925 423.523Z" fill="black"/>
<path d="M353.908 606.605C356.063 611.073 357.834 615.716 359.204 620.483C359.226 620.64 359.282 620.791 359.366 620.926C359.451 621.06 359.564 621.175 359.696 621.264C359.828 621.352 359.978 621.411 360.135 621.437C360.292 621.463 360.452 621.456 360.606 621.416L374.86 621.4C376.619 621.398 378.98 620.833 378.961 619.074C378.948 617.838 377.685 617.068 376.745 616.265C374.136 614.039 373.456 610.368 372.376 607.112C370.275 600.841 366.227 595.404 360.821 591.594C360.091 591.022 359.25 590.606 358.351 590.373C357.448 590.242 356.527 590.292 355.643 590.52C353.141 591.025 343.797 592.752 345.562 596.392C346.322 597.959 349.139 599.59 350.32 601.054C351.696 602.781 352.898 604.641 353.908 606.605Z" fill="#575A89"/>
<path d="M403.475 590.073C402.973 591.129 402.413 592.158 401.799 593.154C399.734 596.56 397.297 599.737 395.374 603.225C394.078 605.355 393.278 607.751 393.033 610.233C392.923 611.474 393.113 612.723 393.586 613.876C394.06 615.028 394.803 616.05 395.753 616.856C397.822 618.426 400.659 618.499 403.231 618.133C405.802 617.767 408.359 617.03 410.949 617.224C410.076 612.282 414.244 607.933 415.286 603.024C415.579 601.645 415.623 600.215 416.015 598.861C416.437 597.623 416.977 596.429 417.628 595.294C419.704 591.252 421.171 586.926 421.981 582.455C422.08 581.913 409.311 581.824 408.113 582.083C404.375 582.892 404.922 586.974 403.475 590.073Z" fill="#575A89"/>
<path d="M305.059 512.434C301.414 518.138 302.254 525.698 304.814 531.964C307.374 538.231 311.449 543.771 314.237 549.94C316.015 553.872 317.262 558.042 319.264 561.865C321.744 566.599 325.363 570.772 327.027 575.851C328.087 579.088 328.331 582.636 330.049 585.578C331.087 587.15 332.272 588.621 333.588 589.969C337.288 594.208 340.066 599.17 341.746 604.541C343.316 599.863 348.017 596.797 352.846 595.785C357.675 594.774 362.678 595.461 367.563 596.151C364.838 591.929 362.087 587.654 360.462 582.899C358.891 578.301 358.428 573.408 357.369 568.665C355.199 558.939 350.563 549.968 345.974 541.122L369.564 539.251C373.414 538.864 377.285 538.72 381.153 538.821C387.242 539.108 393.207 540.6 399.264 541.29C405.32 541.98 411.727 541.8 417.124 538.967C406.804 553.775 401.429 571.467 401.768 589.513C404.074 587.726 406.752 586.477 409.603 585.858C412.455 585.239 415.409 585.266 418.249 585.936C421.089 586.606 423.743 587.903 426.017 589.732C428.292 591.561 430.128 593.875 431.392 596.505C440.637 583.872 439.538 566.284 446.863 552.45C448.369 549.605 450.215 546.955 451.841 544.177C454.913 538.597 457.543 532.786 459.707 526.795C461.756 521.554 463.82 515.723 461.855 510.45C461.039 508.449 459.85 506.622 458.353 505.064C454.126 500.405 448.243 496.958 441.954 496.814C432.299 496.594 424.323 503.75 415.854 508.391C405.743 513.765 394.307 516.136 382.893 515.227C371.259 514.403 360.149 510.595 349.065 507.241C343.52 505.485 337.885 504.032 332.183 502.886C327.43 501.994 322.903 502.982 318.219 504.197C313.119 505.521 307.994 507.841 305.059 512.434Z" fill="#2F2E41"/>
<path d="M405.787 408.297C405.782 414.672 403.247 420.784 398.74 425.291C394.232 429.799 388.121 432.333 381.746 432.338C380.314 432.341 378.884 432.212 377.475 431.954C372.976 431.141 368.801 429.063 365.442 425.962C362.082 422.861 359.677 418.866 358.507 414.446C357.337 410.026 357.452 405.365 358.839 401.008C360.225 396.651 362.824 392.78 366.333 389.848C369.841 386.917 374.113 385.047 378.647 384.457C383.181 383.867 387.788 384.583 391.93 386.519C396.072 388.456 399.575 391.534 402.029 395.391C404.484 399.248 405.787 403.725 405.787 408.297Z" fill="#FFB9B9"/>
<path d="M367.723 431.136C367.723 431.136 372.13 433.14 373.733 434.742C375.336 436.345 380.144 445.16 388.157 439.551C396.171 433.941 396.972 430.736 399.377 430.736C401.781 430.736 404.986 435.544 404.986 435.544L427.024 501.656C421.084 508.361 414.2 514.165 406.589 518.886C393.767 526.9 378.541 530.906 371.329 527.701C364.117 524.495 350.493 522.091 348.089 515.68C345.685 509.269 341.678 490.037 341.678 490.037L352.897 441.153L367.723 431.136Z" fill="#F2F2F2"/>
<path d="M364.628 498.001C366.375 494.227 366.629 489.955 366.777 485.799C367.013 481.683 366.903 477.555 366.451 473.457C365.741 468.096 363.995 462.932 362.893 457.638C361.926 452.995 361.456 448.262 361.491 443.52C361.507 441.356 361.664 439.078 362.843 437.264C363.666 435.998 364.953 435.017 365.467 433.598C366.474 430.815 363.984 427.9 361.255 426.754C357.931 425.508 354.294 425.362 350.881 426.338C347.495 427.316 344.224 428.655 341.123 430.33C338.779 431.33 336.622 432.724 334.748 434.451C332.26 437.025 331.166 440.61 330.283 444.079C329.576 446.856 328.948 449.751 329.486 452.565C330.359 457.135 334.085 460.572 336.071 464.78C338.377 469.665 338.221 475.359 337.304 480.683C336.387 486.007 334.759 491.213 334.256 496.592C333.754 501.971 334.525 507.754 337.895 511.976C339.269 513.697 342.994 517.775 345.508 517.314C347.484 516.951 350.347 512.603 351.938 511.225C356.535 507.244 361.989 503.702 364.628 498.001Z" fill="#2F2E41"/>
<path d="M406.614 428.523C406.684 432.992 404.714 437.241 402.397 441.063C400.08 444.886 397.358 448.501 395.651 452.632C393.529 457.804 393.096 463.513 394.413 468.945C394.903 470.796 395.493 472.618 396.181 474.404L400.572 486.447C401.163 488.341 402.02 490.141 403.118 491.793C404.111 493.058 405.275 494.179 406.578 495.122C409.913 497.815 413.751 499.817 417.868 501.012C422.014 502.197 426.439 501.945 430.422 500.295C430.846 483.969 433.469 467.774 438.221 452.148C439.098 449.263 440.058 446.227 439.381 443.289C438.622 439.997 435.979 437.527 433.466 435.27C425.781 428.369 417.33 421.12 407.043 420.19C401.09 419.651 406.563 425.291 406.614 428.523Z" fill="#2F2E41"/>
<path d="M354.025 521.693C354.634 522.886 355.014 524.186 355.616 525.382C356.506 526.987 357.605 528.466 358.886 529.779C364.244 535.72 370.794 541.639 378.786 541.997C379.58 542.072 380.381 541.971 381.132 541.702C381.808 541.356 382.389 540.85 382.824 540.228C383.259 539.606 383.535 538.887 383.628 538.133C384.195 535.03 382.825 531.933 381.453 529.092C378.481 522.935 375.136 516.621 369.57 512.65C366.79 510.746 363.615 509.496 360.283 508.995C356.951 508.493 353.549 508.754 350.332 509.756C347.433 510.649 342.626 512.209 346.464 514.854C349.376 516.861 352.336 518.389 354.025 521.693Z" fill="#FFB9B9"/>
<path d="M388.575 443.302C387.741 441.049 386.462 438.987 384.814 437.239C383.152 435.834 381.185 434.837 379.069 434.328C376.328 433.545 373.493 433.139 370.642 433.12C367.248 433.099 363.313 434.01 361.872 437.082C360.727 439.522 361.614 442.412 362.767 444.848C363.259 446.11 364.079 447.218 365.142 448.057C366.606 449.046 368.499 449.015 370.234 449.346C372.924 450.029 375.472 451.184 377.759 452.756L383.703 456.349L393.914 462.521C393.645 462.358 393.74 455.357 393.427 454.209C392.416 450.512 390.142 446.803 388.575 443.302Z" fill="#FFB9B9"/>
<path d="M358.833 618.669C356.444 621.915 356.923 626.556 354.806 629.987C352.972 632.961 349.515 634.52 347.22 637.155C346.488 638.03 345.835 638.969 345.27 639.961C343.141 643.526 341.411 648.095 343.507 651.68C345.194 654.563 348.738 655.69 351.989 656.458C356.098 657.429 360.367 658.206 364.523 657.464C368.68 656.722 372.742 654.177 374.223 650.224C374.515 649.23 374.861 648.253 375.261 647.297C377.513 642.862 384.579 642.814 386.885 638.406C388.498 635.322 387.015 631.593 385.533 628.444L381.005 618.824C379.502 615.632 373.411 617.468 370.235 616.703C366.093 615.705 361.812 614.606 358.833 618.669Z" fill="#2F2E41"/>
<path d="M393.855 610.405C392.001 611.865 390.584 613.806 389.759 616.017C387.518 621.187 386.748 626.855 386.001 632.44C385.575 634.661 385.531 636.939 385.871 639.175C386.837 643.737 390.97 647.095 395.419 648.49C399.867 649.885 404.639 649.67 409.296 649.441C410.798 649.48 412.289 649.177 413.658 648.556C415.998 647.265 416.912 644.232 416.511 641.59C416.11 638.948 414.666 636.597 413.253 634.328C411.84 632.06 410.396 629.71 409.991 627.069C409.31 622.625 411.231 616.103 408.501 612.083C405.765 608.054 397.507 607.846 393.855 610.405Z" fill="#2F2E41"/>
<path d="M405.183 395.768C404.755 394.331 403.813 393.101 402.536 392.314C402.602 390.774 402.413 389.233 401.977 387.755C400.521 383.451 397.072 383.697 393.818 381.794C392.406 380.969 392.493 380.239 391.758 378.883C390.795 377.105 389.353 375.633 387.595 374.635C385.507 373.305 383.303 371.935 380.833 371.766C375.643 371.413 371.663 376.295 366.702 377.861C364.516 378.552 362.166 378.58 359.968 379.233C357.77 379.886 355.577 381.445 355.249 383.715C355.098 384.762 355.365 385.837 355.211 386.885C354.906 388.967 353.08 390.425 351.857 392.137C349.153 395.924 349.462 401.273 351.625 405.394C352.08 406.246 352.602 407.062 353.184 407.834C353.364 409.781 353.924 411.674 354.83 413.407C356.993 417.527 360.713 420.606 364.6 423.164C364.282 421.798 364.089 420.405 364.024 419.003C363.969 418.536 364.03 418.063 364.201 417.625C364.634 416.72 365.777 416.479 366.65 415.984C368.456 414.957 369.164 412.686 369.216 410.609C369.269 408.532 368.828 406.452 369.046 404.386C369.055 403.91 369.163 403.442 369.363 403.011C369.564 402.581 369.852 402.197 370.21 401.884C370.877 401.504 371.638 401.322 372.405 401.361C376.106 401.21 379.973 401.142 383.237 399.392C384.29 398.692 385.422 398.12 386.609 397.686C389.383 396.963 392.218 398.907 393.817 401.287C395.416 403.667 396.213 406.499 397.689 408.957C399.164 411.416 401.712 413.608 404.564 413.317C404.725 413.317 404.884 413.284 405.031 413.218C405.177 413.153 405.309 413.058 405.416 412.938C405.539 412.717 405.594 412.464 405.573 412.212L405.732 401.31C405.865 399.445 405.679 397.571 405.183 395.768Z" fill="#2F2E41"/>
<path d="M329.1 452.798C326.806 456.182 324.162 459.436 322.901 463.324C322.16 465.61 321.93 468.026 321.393 470.369C319.606 478.17 314.443 485.099 313.924 493.086C313.743 494.86 314.003 496.652 314.683 498.302C316.164 501.523 319.708 503.221 323.089 504.289C326.47 505.357 330.101 506.126 332.8 508.426C334.158 509.728 335.39 511.157 336.479 512.692C340.882 518.168 346.805 522.22 353.504 524.34C352.975 520.694 352.726 516.299 355.641 514.045C357.219 512.825 359.327 512.608 361.315 512.436L370.704 511.625C364.443 505.551 357.542 500.175 350.121 495.59C347.525 493.986 344.699 492.294 343.513 489.482C342.901 487.67 342.647 485.756 342.765 483.847C342.7 476.864 342.109 469.896 340.996 463.002C340.223 458.215 339.2 453.471 338.029 448.765C337.7 447.444 335.758 441.519 333.367 442.905C332.804 443.232 332.277 446.99 331.948 447.77C331.166 449.535 330.212 451.219 329.1 452.798Z" fill="#2F2E41"/>
<path d="M437.245 440.01L441.079 447.984C442.927 451.263 443.767 455.014 443.497 458.768L443.724 482.689C443.901 485.885 443.636 489.09 442.938 492.214C442.699 493.244 442.248 494.212 441.615 495.058C440.965 495.788 440.199 496.405 439.348 496.885C432.091 501.419 422.681 503.997 415.013 500.197C413.257 499.261 411.588 498.171 410.024 496.94C406.969 494.677 403.868 492.37 401.582 489.332C399.189 486.152 397.818 482.344 396.209 478.705C393.32 472.176 389.587 466.054 385.107 460.496C384.364 459.761 383.882 458.804 383.732 457.771C383.685 455.674 386.172 454.642 388.112 453.844C391.426 452.481 394.55 449.851 395.105 446.311C402.152 455.552 409.928 465.316 421.047 468.692C421.222 468.804 421.423 468.866 421.63 468.872C421.837 468.879 422.041 468.829 422.222 468.728C422.403 468.628 422.553 468.48 422.657 468.301C422.761 468.122 422.815 467.919 422.812 467.712C423.443 465.071 423.666 462.351 424.128 459.676C424.975 454.803 426.606 450.1 428.957 445.749C430.274 443.31 434.538 434.381 437.245 440.01Z" fill="#2F2E41"/>
<path opacity="0.1" d="M342.094 463.071C342.2 468.732 340.997 474.34 338.58 479.46C337.951 480.592 337.488 481.808 337.204 483.071C336.783 485.765 338.317 488.373 340.069 490.462C343.526 494.571 348.01 497.69 353.064 499.503" fill="black"/>
<path opacity="0.1" d="M425.357 458.3C424.792 459.819 425.305 461.499 425.741 463.061C427.002 467.589 427.592 472.279 427.489 476.979C427.507 477.062 427.505 477.147 427.482 477.228C427.459 477.309 427.416 477.383 427.357 477.443C427.298 477.504 427.225 477.548 427.145 477.573C427.065 477.598 426.979 477.603 426.897 477.587C425.047 477.7 422.929 477.712 421.674 476.348" fill="black"/>
<path opacity="0.1" d="M739.688 684.819C808.631 684.819 864.52 672.843 864.52 658.069C864.52 643.296 808.631 631.32 739.688 631.32C670.745 631.32 614.855 643.296 614.855 658.069C614.855 672.843 670.745 684.819 739.688 684.819Z" fill="black"/>
<path d="M802.104 419.303L793.188 428.219L802.104 437.136L811.021 419.303H802.104Z" fill="#A0616A"/>
<path d="M804.112 341.986C806.614 343.01 807.804 345.809 808.747 348.343L820.314 379.424L822.565 385.474C823.669 388.441 824.774 391.409 825.708 394.434C826.299 396.347 826.82 398.28 827.272 400.233C827.741 401.904 827.921 403.642 827.805 405.374C827.493 407.279 826.797 409.101 825.761 410.73C821.737 417.738 816.006 423.616 809.101 427.817C808.703 425.247 807.667 422.818 806.087 420.752C804.508 418.686 802.435 417.049 800.06 415.991L806.041 412.702C807.306 412.108 808.444 411.274 809.392 410.247C809.972 409.446 810.383 408.536 810.603 407.572C810.823 406.608 810.847 405.61 810.672 404.636C810.313 402.694 809.717 400.804 808.897 399.007C806.89 393.999 805.149 388.888 803.68 383.697C802.811 380.626 802.013 377.47 800.292 374.782C798.73 372.344 796.468 370.395 795.049 367.871C792.886 364.025 792.942 359.29 793.897 354.982C794.703 351.345 796.055 347.845 797.193 344.304C798.086 341.522 801.433 340.89 804.112 341.986Z" fill="#D0CDE1"/>
<path d="M748.965 258.946C744.366 260.5 740.199 264.132 739.258 268.895C738.821 271.102 739.089 273.397 738.721 275.617C737.869 280.766 733.828 284.698 730.1 288.35C726.372 292.003 722.523 296.247 722.25 301.458C721.953 307.165 726.091 312.512 725.375 318.181C724.543 324.768 717.586 329.037 715.866 335.449C714.718 339.731 716.125 344.344 718.44 348.125C722.852 355.33 730.394 360.221 738.425 362.843C746.456 365.465 755.009 366.017 763.457 366.105C773.743 366.213 784.911 365.33 792.64 358.541C797.054 354.629 799.827 349.192 800.401 343.321C801.135 335.457 797.853 327.332 800.117 319.765C801.542 315.003 805.115 310.654 804.582 305.713C804.06 300.881 799.84 297.456 796.945 293.552C794.242 289.908 792.602 285.604 790.994 281.36L785.494 266.841C784.412 263.987 783.225 260.985 780.815 259.112C776.304 255.605 769.05 256.294 763.775 257.018C758.882 257.689 753.671 257.357 748.965 258.946Z" fill="#2F2E41"/>
<path d="M753.22 306.794C753.22 306.794 753.758 322.945 752.143 324.561C750.528 326.176 758.604 336.943 758.604 336.943L773.14 336.405L780.677 330.483L774.217 321.869C774.217 321.869 771.525 307.871 773.678 304.641C775.832 301.41 753.22 306.794 753.22 306.794Z" fill="#A0616A"/>
<path opacity="0.1" d="M753.22 306.794C753.22 306.794 753.758 322.945 752.143 324.561C750.528 326.176 758.604 336.943 758.604 336.943L773.14 336.405L780.677 330.483L774.217 321.869C774.217 321.869 771.525 307.871 773.678 304.641C775.832 301.41 753.22 306.794 753.22 306.794Z" fill="black"/>
<path d="M719.571 431.428L728.723 451.887L735.723 443.273L721.725 424.968L719.571 431.428Z" fill="#A0616A"/>
<path d="M695.076 636.281L691.307 657.278L684.846 666.431L688.615 668.584L695.076 667.507L702.613 664.815L705.843 652.433L711.765 636.281H695.076Z" fill="#A0616A"/>
<path d="M763.988 623.36L761.834 653.51L767.218 657.816L775.832 650.279V628.205L763.988 623.36Z" fill="#A0616A"/>
<path d="M762.103 312.985C772.807 312.985 781.485 304.308 781.485 293.604C781.485 282.9 772.807 274.222 762.103 274.222C751.399 274.222 742.722 282.9 742.722 293.604C742.722 304.308 751.399 312.985 762.103 312.985Z" fill="#A0616A"/>
<path d="M777.059 319.672C776.478 319.393 775.844 319.242 775.199 319.229C774.555 319.217 773.915 319.343 773.324 319.6C772.149 320.121 771.007 320.716 769.907 321.382C767.078 322.853 763.871 323.437 760.706 323.055C760.334 323.027 759.97 322.933 759.63 322.778C759.27 322.555 758.939 322.287 758.645 321.983C757.497 321.05 756.032 320.6 754.558 320.727C753.085 320.854 751.719 321.548 750.747 322.664C750.178 323.373 749.788 324.22 749.167 324.884C747.558 326.604 744.903 326.674 742.548 326.67C737.664 326.534 732.782 326.981 728.005 328.003C723.206 329.038 718.786 331.38 715.234 334.77C714.265 335.682 713.492 336.782 712.965 338.004C712.316 339.68 712.401 341.561 711.817 343.26C711.167 345.153 709.727 346.705 709.144 348.619C708.705 350.061 708.766 351.666 708.031 352.982C711.177 355.705 713.843 359.337 716.989 362.06C719.072 363.863 721.254 365.813 722.037 368.455C722.389 370.084 722.545 371.748 722.502 373.414C722.892 381.378 727.211 388.602 732.041 394.946C733.365 396.827 734.95 398.511 736.748 399.947C739.189 401.609 741.961 402.722 744.873 403.21C750.374 404.335 756.035 404.329 761.648 404.273C767.45 404.215 773.354 404.092 778.869 402.289C781.675 401.506 784.2 399.938 786.147 397.77C788.416 394.984 789.3 390.954 792.395 389.129C793.144 388.785 793.854 388.361 794.512 387.865C795.142 387.181 795.588 386.348 795.808 385.444C796.891 382.063 797.487 378.545 797.58 374.996C797.501 372.866 797.645 370.733 798.011 368.634C798.546 366.783 799.326 365.013 800.33 363.369L806.743 351.738C807.264 350.793 807.129 349.402 807.176 348.323C807.129 346.768 806.651 345.257 805.797 343.957C801.637 336.605 795.103 330.885 787.266 327.735C786.648 327.525 786.06 327.237 785.515 326.877C784.874 326.338 784.332 325.691 783.913 324.966C782.211 322.401 780.132 319.512 777.059 319.672Z" fill="#D0CDE1"/>
<path d="M697.132 383.016C695.867 386.091 694.938 389.293 694.362 392.567C693.743 397.091 694.472 401.697 696.459 405.808C699.915 412.922 706.719 417.747 711.521 424.031C715.983 429.87 718.64 436.868 722.504 443.119C721.83 441.528 722.649 439.686 723.751 438.355C724.854 437.025 726.263 435.921 727.072 434.394C727.622 433.212 727.968 431.944 728.095 430.646C728.672 426.77 728.983 422.559 727.007 419.175C725.519 416.628 722.95 414.936 720.916 412.8C718.881 410.626 717.386 408.006 716.551 405.148C715.715 402.291 715.562 399.278 716.105 396.35C716.496 394.336 717.216 392.401 717.756 390.421C718.423 387.759 718.929 385.059 719.269 382.336L721.694 365.684C722.339 361.255 722.884 356.354 720.376 352.647C719.886 351.871 719.21 351.231 718.408 350.785C717.744 350.482 717.038 350.283 716.314 350.196C713.675 349.764 710.101 348.609 708.813 351.436C707.258 354.849 706.175 358.568 704.874 362.087L697.132 383.016Z" fill="#D0CDE1"/>
<path d="M789.532 392.127C789.532 392.127 757.527 398.318 749.99 398.318H736.53C736.53 398.318 731.685 406.932 731.685 415.546C731.685 424.16 699.921 544.757 699.921 544.757C699.921 544.757 669.771 643.819 703.151 644.357C736.53 644.895 757.527 646.51 758.065 635.205C758.604 623.899 761.834 477.998 761.834 477.998L766.859 553.02C768.21 571.592 766.768 590.262 762.58 608.407C760.17 618.579 760.544 629.731 772.602 631.974C795.752 636.281 824.824 632.513 824.824 624.437C824.824 616.361 809.75 437.082 809.75 437.082C809.75 437.082 802.213 410.701 797.906 408.547C793.598 406.394 789.532 392.127 789.532 392.127Z" fill="#2F2E41"/>
<path d="M689.153 665.354L700.998 661.047L709.073 640.588L717.687 639.512C717.687 639.512 712.842 649.741 710.15 651.356C707.458 652.971 703.151 666.43 703.151 666.43C703.151 666.43 705.305 671.814 695.075 673.968C684.846 676.121 677.309 677.736 677.309 677.736C677.309 677.736 676.232 675.583 681.078 670.199C685.923 664.815 691.581 655.752 691.581 655.752L689.153 665.354Z" fill="#2F2E41"/>
<path d="M761.834 640.588L759.681 656.74C759.681 656.74 765.603 665.354 767.218 665.354C768.833 665.354 777.447 657.816 777.447 657.816C777.447 657.816 776.909 649.741 777.447 647.587C777.986 645.434 779.062 635.204 777.447 634.666C775.832 634.128 775.832 646.665 775.832 646.665L768.833 654.048L762.085 650.001L761.834 640.588Z" fill="#2F2E41"/>
<path d="M763.718 293.604C775.315 293.604 784.715 288.542 784.715 282.298C784.715 276.054 775.315 270.992 763.718 270.992C752.122 270.992 742.722 276.054 742.722 282.298C742.722 288.542 752.122 293.604 763.718 293.604Z" fill="#2F2E41"/>
<path d="M0 504.168C0 567.591 39.7881 618.912 88.9586 618.912Z" fill="#3F3D56"/>
<path d="M88.959 618.912C88.959 554.776 133.36 502.879 188.232 502.879Z" fill="#6C63FF"/>
<path d="M32.231 509.917C32.231 570.162 57.6031 618.912 88.9582 618.912Z" fill="#6C63FF"/>
<path d="M88.959 618.912C88.959 536.961 140.28 470.647 203.703 470.647Z" fill="#3F3D56"/>
<path d="M70.2441 619.721C70.2441 619.721 82.8599 619.332 86.662 616.625C90.4641 613.917 106.068 610.684 107.011 615.027C107.955 619.369 125.971 636.622 111.728 636.737C97.4843 636.852 78.6327 634.518 74.838 632.207C71.0432 629.895 70.2441 619.721 70.2441 619.721Z" fill="#A8A8A8"/>
<path opacity="0.2" d="M111.982 635.226C97.7385 635.341 78.8869 633.007 75.0922 630.695C72.2022 628.935 71.0506 622.618 70.6653 619.704C70.3985 619.716 70.2441 619.721 70.2441 619.721C70.2441 619.721 71.0432 629.895 74.838 632.207C78.6328 634.519 97.4844 636.852 111.728 636.737C115.839 636.704 117.259 635.241 117.181 633.075C116.61 634.384 115.042 635.201 111.982 635.226Z" fill="black"/>
</g>
<defs>
<clipPath id="clip0_310_18">
<rect width="1027" height="798" fill="white"/>
</clipPath>
</defs>
</svg>
