<svg width="1027" height="799" viewBox="0 0 1027 799" fill="none" xmlns="http://www.w3.org/2000/svg">
<g clip-path="url(#clip0_310_18)">
<path d="M573.243 764.042C777.336 764.042 942.786 598.385 942.786 394.036C942.786 189.687 777.336 24.0301 573.243 24.0301C369.15 24.0301 203.7 189.687 203.7 394.036C203.7 598.385 369.15 764.042 573.243 764.042Z" fill="#F2F2F2"/>
<path d="M686.188 255.161C739.263 255.161 782.289 212.081 782.289 158.94C782.289 105.798 739.263 62.7184 686.188 62.7184C633.113 62.7184 590.087 105.798 590.087 158.94C590.087 212.081 633.113 255.161 686.188 255.161Z" fill="#FF6584"/>
<path d="M283.313 95.9318L285.94 150.765C296.829 165.306 308.576 181.946 320.17 200.082L321.825 116.429L322.739 117.013C309.328 107.421 295.695 100.082 282.4 95.4236L283.313 95.9318Z" fill="#6C63FF"/>
<path d="M284.025 148.217L281.481 95.1021C266.549 90.0034 252.061 88.3119 238.818 90.6766C238.129 90.7996 237.452 90.9412 236.776 91.0849C240.141 94.6994 259.75 116.046 284.025 148.217Z" fill="#6C63FF"/>
<path d="M404.591 213.635L405.472 214.477C401.853 207.662 398.017 201.036 393.964 194.599L369.27 291.884L368.853 291.516C370.638 295.783 372.336 300.022 373.946 304.232L404.591 213.635Z" fill="#6C63FF"/>
<path d="M366.973 158.326L367.882 159.055C354.827 143.567 339.985 129.682 323.668 117.689L321.98 202.936C332.769 219.984 342.428 236.775 350.958 253.311L366.973 158.326Z" fill="#6C63FF"/>
<path d="M187.845 184.941C189.232 199.309 192.066 213.501 196.303 227.299L343.557 242.506C335.869 228.313 327.934 214.996 320.23 202.86L188.219 186.1L187.845 184.941Z" fill="#6C63FF"/>
<path d="M201.66 243.21L201.263 242.053L350.297 255.317C348.497 251.791 346.677 248.312 344.836 244.879L197.038 229.615L196.65 228.457C198.14 233.32 199.809 238.238 201.66 243.21Z" fill="#6C63FF"/>
<path d="M392.286 192.571L393.182 193.362C385.793 181.726 377.628 170.603 368.743 160.068L352.513 256.337C358.138 267.395 363.233 278.298 367.798 289.045L392.286 192.571Z" fill="#6C63FF"/>
<path d="M389.134 353.383C395.057 379.046 397.301 403.311 395.82 425.91C404.154 408.13 435.848 334.472 424.001 265.826L389.134 353.383Z" fill="#6C63FF"/>
<path d="M228.999 295.093C236.885 305.729 245.474 315.824 254.708 325.309L254.348 324.024L386.919 351.331C383.47 337.001 379.166 322.891 374.029 309.077L228.999 295.093Z" fill="#6C63FF"/>
<path d="M282.881 149.113C256.609 114.313 235.879 92.3176 235.58 92.0028L235.922 91.2697C215.985 95.8015 201.908 109.383 194.163 129.041L282.881 149.113Z" fill="#6C63FF"/>
<path d="M375.173 307.497C375.662 308.806 376.16 310.118 376.633 311.422C381.186 323.91 385.056 336.638 388.227 349.548L422.764 262.82L423.607 263.667C421.421 251.599 417.716 239.857 412.581 228.721C410.544 224.355 408.411 220.055 406.183 215.82L375.173 307.497Z" fill="#6C63FF"/>
<path d="M318.687 200.442C307.212 182.52 295.598 166.08 284.834 151.71L194.08 131.177L193.772 130.03C188.107 144.969 186.035 163.321 187.751 183.818L318.687 200.442Z" fill="#6C63FF"/>
<path d="M387.456 353.609L255.855 326.501C311.209 383.396 388.653 427.029 393.596 429.787C395.902 404.72 393.286 378.972 387.456 353.609Z" fill="#6C63FF"/>
<path d="M373.097 306.741L373.127 306.654C366.799 289.951 359.578 273.601 351.494 257.676L202.092 244.379C204.629 251.105 207.496 257.902 210.692 264.771C215.349 274.558 220.887 283.899 227.238 292.678L373.097 306.741Z" fill="#6C63FF"/>
<path d="M563.143 280.624L530.237 324.533C529.36 342.687 527.807 363.005 525.184 384.377L579.747 321.005L580.079 322.038C575.86 306.086 570.035 291.728 562.763 279.649L563.143 280.624Z" fill="#6C63FF"/>
<path d="M530.384 321.349L562.26 278.815C554.008 265.353 543.927 254.798 532.221 248.162C531.612 247.817 531 247.493 530.388 247.172C530.677 252.105 532.181 281.069 530.384 321.349Z" fill="#6C63FF"/>
<path d="M581.571 448.727L581.713 449.939C583.267 442.379 584.533 434.826 585.512 427.28L504.521 486.438L504.434 485.887C503.09 490.315 501.698 494.663 500.256 498.934L581.571 448.727Z" fill="#6C63FF"/>
<path d="M587.83 382.106L588.066 383.248C587.877 362.982 585.291 342.809 580.363 323.152L524.76 387.731C522.21 407.751 518.953 426.852 514.989 445.035L587.83 382.106Z" fill="#6C63FF"/>
<path d="M432.913 288.21C424.829 300.163 417.971 312.902 412.445 326.235L516.171 431.987C519.292 416.146 521.663 400.822 523.46 386.554L432.463 289.342L432.913 288.21Z" fill="#6C63FF"/>
<path d="M406.435 341.912L406.867 340.767L513.202 446.158C514.062 442.293 514.876 438.451 515.645 434.631L411.536 328.49L411.975 327.349C410.024 332.046 408.178 336.9 406.435 341.912Z" fill="#6C63FF"/>
<path d="M585.511 424.646L585.698 425.827C587.419 412.147 588.216 398.366 588.084 384.578L514.258 448.358C511.547 460.468 508.526 472.119 505.195 483.311L585.511 424.646Z" fill="#6C63FF"/>
<path d="M480.644 546.489C468.858 570.037 455.129 590.159 439.593 606.618C457.338 598.247 528.67 561.757 563.274 501.32L480.644 546.489Z" fill="#6C63FF"/>
<path d="M394.441 399.331C393.74 412.558 393.925 425.818 394.994 439.021L395.536 437.801L480.245 543.494C486.718 530.255 492.391 516.639 497.235 502.719L394.441 399.331Z" fill="#6C63FF"/>
<path d="M528.933 321.308C530.866 277.727 528.911 247.548 528.882 247.115L529.612 246.769C511.37 237.527 491.877 238.998 473.389 249.192L528.933 321.308Z" fill="#6C63FF"/>
<path d="M499.121 502.232C498.664 503.553 498.212 504.882 497.746 506.187C493.297 518.714 488.17 530.988 482.389 542.956L564.235 498.215L564.345 499.406C570.349 488.715 574.975 477.305 578.114 465.45C579.327 460.786 580.424 456.112 581.405 451.427L499.121 502.232Z" fill="#6C63FF"/>
<path d="M523.813 383.707C526.391 362.576 527.919 342.497 528.782 324.555L471.964 250.784L472.458 249.704C458.578 257.592 445.292 270.403 433.557 287.286L523.813 383.707Z" fill="#6C63FF"/>
<path d="M479.208 545.592L395.119 440.672C401.509 519.841 433.36 602.904 435.41 608.184C453.154 590.351 467.542 568.85 479.208 545.592Z" fill="#6C63FF"/>
<path d="M498.004 500.325L498.082 500.276C503.849 483.371 508.702 466.167 512.62 448.739L406.023 343.088C403.693 349.888 401.571 356.954 399.657 364.286C397.009 374.797 395.324 385.528 394.624 396.346L498.004 500.325Z" fill="#6C63FF"/>
<path d="M235.04 339.247L254.465 390.582C269.31 401.041 285.619 413.231 302.244 426.891L277.993 346.822L279.042 347.095C263.327 342.123 248.097 339.362 234.014 339.047L235.04 339.247Z" fill="#6C63FF"/>
<path d="M251.858 388.752L233.041 339.025C217.267 338.797 202.966 341.672 191.102 348.02C190.484 348.35 189.884 348.694 189.286 349.04C193.602 351.436 218.84 365.669 251.858 388.752Z" fill="#6C63FF"/>
<path d="M386.715 413.653L387.813 414.181C382.267 408.82 376.574 403.705 370.732 398.838L377.281 499.002L376.769 498.78C379.785 502.287 382.708 505.792 385.539 509.298L386.715 413.653Z" fill="#6C63FF"/>
<path d="M333.864 372.695L334.954 373.107C317.757 362.417 299.355 353.805 280.135 347.45L304.846 429.045C320.37 441.919 334.74 454.898 347.957 467.984L333.864 372.695Z" fill="#6C63FF"/>
<path d="M171.725 453.444C177.48 466.679 184.556 479.299 192.845 491.11L337.582 460C325.89 448.88 314.232 438.672 303.159 429.514L172.439 454.43L171.725 453.444Z" fill="#6C63FF"/>
<path d="M202.852 504.584L202.117 503.607L347.948 470.097C345.148 467.301 342.342 464.555 339.532 461.86L194.26 493.085L193.533 492.103C196.451 496.268 199.557 500.428 202.852 504.584Z" fill="#6C63FF"/>
<path d="M368.51 397.429L369.606 397.904C358.987 389.125 347.788 381.073 336.086 373.804L350.37 470.381C359.133 479.157 367.345 487.949 375.004 496.757L368.51 397.429Z" fill="#6C63FF"/>
<path d="M415.157 551.342C428.712 573.915 438.337 596.297 443.905 618.247C446.342 598.759 453.746 518.899 421.286 457.281L415.157 551.342Z" fill="#6C63FF"/>
<path d="M244.869 545.465C255.652 553.14 266.937 560.082 278.647 566.245L277.908 565.134L412.417 550.075C404.713 537.514 396.263 525.427 387.114 513.88L244.869 545.465Z" fill="#6C63FF"/>
<path d="M251.047 389.958C215.317 364.993 188.812 350.49 188.431 350.283L188.53 349.48C170.968 359.96 161.774 377.233 160.477 398.326L251.047 389.958Z" fill="#6C63FF"/>
<path d="M387.714 512.023C388.583 513.117 389.462 514.211 390.314 515.304C398.499 525.772 406.109 536.678 413.11 547.975L419.182 454.806L420.246 455.35C414.441 444.55 407.292 434.529 398.971 425.528C395.686 422.006 392.33 418.576 388.904 415.238L387.714 512.023Z" fill="#6C63FF"/>
<path d="M300.945 427.692C284.5 414.199 268.379 402.158 253.706 391.823L161.057 400.383L160.411 399.387C159.634 415.348 163.33 433.442 171.289 452.405L300.945 427.692Z" fill="#6C63FF"/>
<path d="M413.63 552.076L280.106 567.024C350.313 604.001 437.434 621.53 442.987 622.623C437.441 598.07 427.005 574.393 413.63 552.076Z" fill="#6C63FF"/>
<path d="M385.506 511.947L385.508 511.855C374.334 497.928 362.418 484.614 349.814 471.97L203.624 505.562C208.112 511.173 212.937 516.75 218.098 522.294C225.548 530.16 233.698 537.33 242.449 543.713L385.506 511.947Z" fill="#6C63FF"/>
<path d="M1027 652.942C1027 697.318 799.007 775.947 517.764 775.947C236.521 775.947 8.52832 697.318 8.52832 652.942C8.52832 608.566 236.521 615.247 517.764 615.247C799.007 615.247 1027 608.566 1027 652.942Z" fill="#3F3D56"/>
<path opacity="0.1" d="M1027 652.942C1027 697.318 799.007 775.947 517.764 775.947C236.521 775.947 8.52832 697.318 8.52832 652.942C8.52832 608.566 236.521 615.247 517.764 615.247C799.007 615.247 1027 608.566 1027 652.942Z" fill="black"/>
<path d="M517.764 733.292C799.007 733.292 1027 697.318 1027 652.942C1027 608.566 799.007 572.592 517.764 572.592C236.521 572.592 8.52832 608.566 8.52832 652.942C8.52832 697.318 236.521 733.292 517.764 733.292Z" fill="#3F3D56"/>
<path opacity="0.1" d="M606.051 568.959C606.051 617.306 538.746 602.352 456.339 602.352C373.931 602.352 307.626 617.306 307.626 568.959C307.626 520.613 374.922 510.098 457.33 510.098C539.737 510.098 606.051 520.613 606.051 568.959Z" fill="black"/>
<path d="M606.051 557.056C606.051 605.402 538.746 590.448 456.339 590.448C373.931 590.448 307.626 605.402 307.626 557.056C307.626 508.709 374.922 498.194 457.33 498.194C539.737 498.194 606.051 508.709 606.051 557.056Z" fill="#3F3D56"/>
<path d="M340.948 424.026C342.761 422.735 344.761 421.73 346.879 421.048C360.308 416.045 374.379 412.978 388.67 411.939C401.097 411.057 414.565 412.105 424.27 419.925C425.78 421.034 427.015 422.475 427.882 424.137C429.103 426.775 428.733 429.842 428.337 432.723C428.249 433.84 427.967 434.934 427.506 435.955C426.2 438.445 422.984 439.317 420.191 439.018C417.398 438.72 414.777 437.537 412.023 436.988C410.317 436.69 408.593 436.515 406.863 436.462L389.585 435.525C378.841 434.943 367.955 434.37 357.416 436.541C354.172 437.125 351.037 438.207 348.122 439.748C345.715 441.101 344.094 443.043 341.86 440.544C337.936 436.153 335.764 428.082 340.948 424.026Z" fill="#2F2E41"/>
<path d="M367.723 431.677C367.723 431.677 390.962 421.246 399.777 433.281C408.592 445.317 394.969 440.503 394.969 440.503L379.743 445.317L362.915 442.107L367.723 431.677Z" fill="#F2F2F2"/>
<path d="M368.925 424.054C368.925 424.054 372.13 439.299 369.726 443.311C367.322 447.323 383.349 452.939 383.349 452.939L398.575 446.52C398.575 446.52 394.569 421.647 398.575 416.833L368.925 424.054Z" fill="#FFB9B9"/>
<path opacity="0.1" d="M368.925 424.054C368.925 424.054 372.13 439.299 369.726 443.311C367.322 447.323 383.349 452.939 383.349 452.939L398.575 446.52C398.575 446.52 394.569 421.647 398.575 416.833L368.925 424.054Z" fill="black"/>
<path d="M353.908 607.365C356.063 611.839 357.834 616.487 359.204 621.261C359.226 621.418 359.282 621.569 359.366 621.704C359.451 621.839 359.564 621.954 359.696 622.042C359.828 622.13 359.978 622.189 360.135 622.216C360.292 622.242 360.452 622.235 360.606 622.195L374.86 622.179C376.619 622.177 378.98 621.611 378.961 619.85C378.948 618.612 377.685 617.841 376.745 617.038C374.136 614.808 373.456 611.133 372.376 607.873C370.275 601.594 366.227 596.15 360.821 592.335C360.091 591.762 359.25 591.346 358.351 591.113C357.448 590.982 356.527 591.032 355.643 591.26C353.141 591.765 343.797 593.495 345.562 597.139C346.322 598.708 349.139 600.341 350.32 601.807C351.696 603.537 352.898 605.399 353.908 607.365Z" fill="#575A89"/>
<path d="M403.475 590.813C402.973 591.87 402.413 592.9 401.799 593.897C399.734 597.307 397.297 600.488 395.374 603.98C394.078 606.114 393.278 608.512 393.033 610.997C392.923 612.24 393.113 613.491 393.586 614.645C394.06 615.799 394.803 616.822 395.753 617.629C397.822 619.201 400.659 619.274 403.231 618.908C405.802 618.541 408.359 617.803 410.949 617.998C410.076 613.049 414.244 608.695 415.286 603.779C415.579 602.399 415.623 600.967 416.015 599.612C416.437 598.372 416.977 597.176 417.628 596.04C419.704 591.993 421.171 587.661 421.981 583.185C422.08 582.642 409.311 582.553 408.113 582.813C404.375 583.622 404.922 587.709 403.475 590.813Z" fill="#575A89"/>
<path d="M305.059 513.076C301.414 518.787 302.254 526.356 304.814 532.631C307.374 538.906 311.449 544.453 314.237 550.629C316.015 554.566 317.262 558.741 319.264 562.569C321.744 567.309 325.363 571.488 327.027 576.572C328.087 579.814 328.331 583.366 330.049 586.312C331.087 587.886 332.272 589.358 333.588 590.708C337.288 594.953 340.066 599.921 341.746 605.298C343.316 600.615 348.017 597.545 352.846 596.532C357.675 595.519 362.678 596.207 367.563 596.898C364.838 592.671 362.087 588.391 360.462 583.63C358.891 579.025 358.428 574.127 357.369 569.378C355.199 559.639 350.563 550.657 345.974 541.8L369.564 539.927C373.414 539.539 377.285 539.395 381.153 539.496C387.242 539.783 393.207 541.278 399.264 541.969C405.32 542.659 411.727 542.479 417.124 539.642C406.804 554.469 401.429 572.183 401.768 590.252C404.074 588.462 406.752 587.212 409.603 586.592C412.455 585.973 415.409 585.999 418.249 586.67C421.089 587.342 423.743 588.64 426.017 590.471C428.292 592.302 430.128 594.619 431.392 597.252C440.637 584.603 439.538 566.994 446.863 553.142C448.369 550.294 450.215 547.641 451.841 544.859C454.913 539.272 457.543 533.453 459.707 527.455C461.756 522.208 463.82 516.369 461.855 511.089C461.039 509.086 459.85 507.256 458.353 505.697C454.126 501.032 448.243 497.58 441.954 497.437C432.299 497.216 424.323 504.382 415.854 509.028C405.743 514.409 394.307 516.783 382.893 515.872C371.259 515.047 360.149 511.235 349.065 507.877C343.52 506.119 337.885 504.663 332.183 503.516C327.43 502.623 322.903 503.612 318.219 504.829C313.119 506.154 307.994 508.477 305.059 513.076Z" fill="#2F2E41"/>
<path d="M405.787 408.809C405.782 415.191 403.247 421.311 398.74 425.824C394.232 430.337 388.121 432.875 381.746 432.88C380.314 432.883 378.884 432.754 377.475 432.495C372.976 431.681 368.801 429.6 365.442 426.495C362.082 423.391 359.677 419.391 358.507 414.965C357.337 410.54 357.452 405.873 358.839 401.51C360.225 397.148 362.824 393.272 366.333 390.337C369.841 387.402 374.113 385.529 378.647 384.939C383.181 384.348 387.788 385.065 391.93 387.004C396.072 388.943 399.575 392.024 402.029 395.886C404.484 399.748 405.787 404.231 405.787 408.809Z" fill="#FFB9B9"/>
<path d="M367.723 431.676C367.723 431.676 372.13 433.682 373.733 435.287C375.336 436.892 380.144 445.718 388.157 440.101C396.171 434.485 396.972 431.275 399.377 431.275C401.781 431.275 404.986 436.09 404.986 436.09L427.024 502.285C421.084 508.998 414.2 514.809 406.589 519.536C393.767 527.56 378.541 531.572 371.329 528.362C364.117 525.153 350.493 522.746 348.089 516.327C345.685 509.908 341.678 490.651 341.678 490.651L352.897 441.706L367.723 431.676Z" fill="#F2F2F2"/>
<path d="M364.628 498.625C366.375 494.846 366.629 490.569 366.777 486.408C367.013 482.287 366.903 478.153 366.451 474.05C365.741 468.683 363.995 463.512 362.893 458.211C361.926 453.563 361.456 448.824 361.491 444.076C361.507 441.909 361.664 439.628 362.843 437.812C363.666 436.544 364.953 435.563 365.467 434.141C366.474 431.355 363.984 428.437 361.255 427.289C357.931 426.041 354.294 425.895 350.881 426.872C347.495 427.852 344.224 429.192 341.123 430.869C338.779 431.87 336.622 433.266 334.748 434.996C332.26 437.573 331.166 441.163 330.283 444.636C329.576 447.416 328.948 450.315 329.486 453.132C330.359 457.708 334.085 461.149 336.071 465.362C338.377 470.254 338.221 475.954 337.304 481.285C336.387 486.616 334.759 491.828 334.256 497.214C333.754 502.6 334.525 508.39 337.895 512.618C339.269 514.341 342.994 518.424 345.508 517.962C347.484 517.599 350.347 513.246 351.938 511.866C356.535 507.879 361.989 504.333 364.628 498.625Z" fill="#2F2E41"/>
<path d="M406.614 429.06C406.684 433.535 404.714 437.788 402.397 441.616C400.08 445.443 397.358 449.063 395.651 453.2C393.529 458.377 393.096 464.094 394.413 469.533C394.903 471.386 395.493 473.21 396.181 474.998L400.572 487.057C401.163 488.953 402.02 490.755 403.118 492.409C404.111 493.676 405.275 494.798 406.578 495.742C409.913 498.439 413.751 500.443 417.868 501.639C422.014 502.827 426.439 502.574 430.422 500.922C430.846 484.575 433.469 468.36 438.221 452.715C439.098 449.826 440.058 446.786 439.381 443.844C438.622 440.549 435.979 438.075 433.466 435.816C425.781 428.906 417.33 421.648 407.043 420.716C401.09 420.177 406.563 425.824 406.614 429.06Z" fill="#2F2E41"/>
<path d="M354.025 522.347C354.634 523.542 355.014 524.843 355.616 526.041C356.506 527.647 357.605 529.128 358.886 530.443C364.244 536.392 370.794 542.318 378.786 542.677C379.58 542.751 380.381 542.65 381.132 542.381C381.808 542.035 382.389 541.528 382.824 540.905C383.259 540.282 383.535 539.562 383.628 538.807C384.195 535.7 382.825 532.6 381.453 529.755C378.481 523.59 375.136 517.269 369.57 513.293C366.79 511.386 363.615 510.134 360.283 509.632C356.951 509.131 353.549 509.391 350.332 510.395C347.433 511.289 342.626 512.851 346.464 515.499C349.376 517.509 352.336 519.038 354.025 522.347Z" fill="#FFB9B9"/>
<path d="M388.575 443.858C387.741 441.602 386.462 439.537 384.814 437.787C383.152 436.38 381.185 435.382 379.069 434.872C376.328 434.088 373.493 433.682 370.642 433.663C367.248 433.642 363.313 434.553 361.872 437.63C360.727 440.073 361.614 442.966 362.767 445.406C363.259 446.669 364.079 447.778 365.142 448.619C366.606 449.609 368.499 449.578 370.234 449.909C372.924 450.593 375.472 451.749 377.759 453.323L383.703 456.921L393.914 463.101C393.645 462.938 393.74 455.927 393.427 454.778C392.416 451.077 390.142 447.363 388.575 443.858Z" fill="#FFB9B9"/>
<path d="M358.833 619.444C356.444 622.695 356.923 627.341 354.806 630.776C352.972 633.754 349.515 635.315 347.22 637.953C346.488 638.83 345.835 639.77 345.27 640.763C343.141 644.332 341.411 648.907 343.507 652.496C345.194 655.383 348.738 656.512 351.989 657.281C356.098 658.253 360.367 659.031 364.523 658.288C368.68 657.545 372.742 654.997 374.223 651.039C374.515 650.043 374.861 649.065 375.261 648.108C377.513 643.668 384.579 643.62 386.885 639.206C388.498 636.118 387.015 632.385 385.533 629.231L381.005 619.599C379.502 616.403 373.411 618.241 370.235 617.475C366.093 616.476 361.812 615.376 358.833 619.444Z" fill="#2F2E41"/>
<path d="M393.855 611.17C392.001 612.631 390.584 614.575 389.759 616.789C387.518 621.966 386.748 627.64 386.001 633.232C385.575 635.457 385.531 637.737 385.871 639.976C386.837 644.543 390.97 647.906 395.419 649.303C399.867 650.699 404.639 650.484 409.296 650.255C410.798 650.294 412.289 649.99 413.658 649.368C415.998 648.076 416.912 645.039 416.511 642.394C416.11 639.748 414.666 637.394 413.253 635.123C411.84 632.852 410.396 630.499 409.991 627.855C409.31 623.405 411.231 616.875 408.501 612.85C405.765 608.816 397.507 608.608 393.855 611.17Z" fill="#2F2E41"/>
<path d="M405.183 396.264C404.755 394.825 403.813 393.593 402.536 392.805C402.602 391.263 402.413 389.721 401.977 388.241C400.521 383.931 397.072 384.178 393.818 382.273C392.406 381.446 392.493 380.715 391.758 379.358C390.795 377.578 389.353 376.104 387.595 375.104C385.507 373.772 383.303 372.401 380.833 372.232C375.643 371.878 371.663 376.766 366.702 378.335C364.516 379.026 362.166 379.055 359.968 379.708C357.77 380.362 355.577 381.923 355.249 384.195C355.098 385.244 355.365 386.321 355.211 387.37C354.906 389.454 353.08 390.914 351.857 392.629C349.153 396.42 349.462 401.776 351.625 405.902C352.08 406.755 352.602 407.572 353.184 408.345C353.364 410.294 353.924 412.19 354.83 413.925C356.993 418.051 360.713 421.133 364.6 423.694C364.282 422.326 364.089 420.932 364.024 419.529C363.969 419.061 364.03 418.587 364.201 418.148C364.634 417.242 365.777 417.001 366.65 416.505C368.456 415.477 369.164 413.203 369.216 411.123C369.269 409.044 368.828 406.961 369.046 404.892C369.055 404.416 369.163 403.948 369.363 403.516C369.564 403.085 369.852 402.701 370.21 402.388C370.877 402.007 371.638 401.825 372.405 401.864C376.106 401.713 379.973 401.645 383.237 399.892C384.29 399.192 385.422 398.619 386.609 398.184C389.383 397.46 392.218 399.407 393.817 401.79C395.416 404.173 396.213 407.008 397.689 409.47C399.164 411.931 401.712 414.126 404.564 413.835C404.725 413.835 404.884 413.802 405.031 413.736C405.177 413.671 405.309 413.575 405.416 413.456C405.539 413.234 405.594 412.981 405.573 412.729L405.732 401.813C405.865 399.945 405.679 398.069 405.183 396.264Z" fill="#2F2E41"/>
<path d="M329.1 453.365C326.806 456.754 324.162 460.011 322.901 463.905C322.16 466.194 321.93 468.613 321.393 470.958C319.606 478.769 314.443 485.707 313.924 493.704C313.743 495.481 314.003 497.275 314.683 498.926C316.164 502.152 319.708 503.852 323.089 504.921C326.47 505.99 330.101 506.761 332.8 509.063C334.158 510.367 335.39 511.797 336.479 513.334C340.882 518.817 346.805 522.875 353.504 524.997C352.975 521.346 352.726 516.946 355.641 514.689C357.219 513.467 359.327 513.25 361.315 513.078L370.704 512.266C364.443 506.185 357.542 500.802 350.121 496.211C347.525 494.605 344.699 492.911 343.513 490.096C342.901 488.281 342.647 486.365 342.765 484.454C342.7 477.462 342.109 470.485 340.996 463.582C340.223 458.789 339.2 454.039 338.029 449.327C337.7 448.005 335.758 442.072 333.367 443.46C332.804 443.787 332.277 447.55 331.948 448.331C331.166 450.099 330.212 451.785 329.1 453.365Z" fill="#2F2E41"/>
<path d="M437.245 440.561L441.079 448.546C442.927 451.829 443.767 455.584 443.497 459.342L443.724 483.293C443.901 486.494 443.636 489.703 442.938 492.831C442.699 493.862 442.248 494.831 441.615 495.679C440.965 496.409 440.199 497.027 439.348 497.508C432.091 502.048 422.681 504.628 415.013 500.824C413.257 499.887 411.588 498.795 410.024 497.563C406.969 495.297 403.868 492.987 401.582 489.945C399.189 486.761 397.818 482.949 396.209 479.305C393.32 472.768 389.587 466.638 385.107 461.073C384.364 460.337 383.882 459.379 383.732 458.344C383.685 456.245 386.172 455.211 388.112 454.413C391.426 453.048 394.55 450.415 395.105 446.871C402.152 456.123 409.928 465.899 421.047 469.28C421.222 469.391 421.423 469.453 421.63 469.46C421.837 469.466 422.041 469.416 422.222 469.316C422.403 469.215 422.553 469.067 422.657 468.888C422.761 468.709 422.815 468.505 422.812 468.298C423.443 465.654 423.666 462.931 424.128 460.252C424.975 455.373 426.606 450.664 428.957 446.308C430.274 443.865 434.538 434.925 437.245 440.561Z" fill="#2F2E41"/>
<path opacity="0.1" d="M342.094 463.651C342.2 469.319 340.997 474.935 338.58 480.061C337.951 481.194 337.488 482.412 337.204 483.676C336.783 486.374 338.317 488.985 340.069 491.077C343.526 495.191 348.01 498.314 353.064 500.129" fill="black"/>
<path opacity="0.1" d="M425.357 458.874C424.792 460.395 425.305 462.078 425.741 463.641C427.002 468.175 427.592 472.871 427.489 477.577C427.507 477.659 427.505 477.745 427.482 477.826C427.459 477.907 427.416 477.981 427.357 478.042C427.298 478.102 427.225 478.147 427.145 478.172C427.065 478.197 426.979 478.201 426.897 478.185C425.047 478.299 422.929 478.311 421.674 476.945" fill="black"/>
<path opacity="0.1" d="M739.688 685.677C808.631 685.677 864.52 673.686 864.52 658.894C864.52 644.102 808.631 632.111 739.688 632.111C670.745 632.111 614.855 644.102 614.855 658.894C614.855 673.686 670.745 685.677 739.688 685.677Z" fill="black"/>
<path d="M802.104 419.828L793.188 428.756L802.104 437.684L811.021 419.828H802.104Z" fill="#A0616A"/>
<path d="M804.112 342.414C806.614 343.44 807.804 346.243 808.747 348.78L820.314 379.9L822.565 385.957C823.669 388.927 824.774 391.9 825.708 394.928C826.299 396.844 826.82 398.779 827.272 400.734C827.741 402.407 827.921 404.148 827.805 405.882C827.493 407.789 826.797 409.613 825.761 411.244C821.737 418.262 816.006 424.147 809.101 428.353C808.703 425.78 807.667 423.347 806.087 421.279C804.508 419.211 802.435 417.572 800.06 416.513L806.041 413.219C807.306 412.624 808.444 411.79 809.392 410.761C809.972 409.959 810.383 409.048 810.603 408.083C810.823 407.118 810.847 406.118 810.672 405.143C810.313 403.199 809.717 401.306 808.897 399.507C806.89 394.493 805.149 389.376 803.68 384.177C802.811 381.103 802.013 377.943 800.292 375.252C798.73 372.811 796.468 370.859 795.049 368.332C792.886 364.482 792.942 359.74 793.897 355.427C794.703 351.785 796.055 348.281 797.193 344.736C798.086 341.95 801.433 341.317 804.112 342.414Z" fill="#D0CDE1"/>
<path d="M748.965 259.271C744.366 260.826 740.199 264.463 739.258 269.232C738.821 271.442 739.089 273.74 738.721 275.962C737.869 281.118 733.828 285.055 730.1 288.712C726.372 292.369 722.523 296.618 722.25 301.836C721.953 307.55 726.091 312.903 725.375 318.58C724.543 325.175 717.586 329.449 715.866 335.87C714.718 340.157 716.125 344.776 718.44 348.561C722.852 355.775 730.394 360.672 738.425 363.298C746.456 365.923 755.009 366.475 763.457 366.564C773.743 366.672 784.911 365.788 792.64 358.99C797.054 355.073 799.827 349.629 800.401 343.751C801.135 335.878 797.853 327.742 800.117 320.166C801.542 315.398 805.115 311.044 804.582 306.096C804.06 301.258 799.84 297.828 796.945 293.92C794.242 290.271 792.602 285.961 790.994 281.713L785.494 267.176C784.412 264.318 783.225 261.313 780.815 259.437C776.304 255.926 769.05 256.616 763.775 257.34C758.882 258.012 753.671 257.68 748.965 259.271Z" fill="#2F2E41"/>
<path d="M753.22 307.179C753.22 307.179 753.758 323.35 752.143 324.967C750.528 326.584 758.604 337.365 758.604 337.365L773.14 336.826L780.677 330.897L774.217 322.272C774.217 322.272 771.525 308.257 773.678 305.022C775.832 301.788 753.22 307.179 753.22 307.179Z" fill="#A0616A"/>
<path opacity="0.1" d="M753.22 307.179C753.22 307.179 753.758 323.35 752.143 324.967C750.528 326.584 758.604 337.365 758.604 337.365L773.14 336.826L780.677 330.897L774.217 322.272C774.217 322.272 771.525 308.257 773.678 305.022C775.832 301.788 753.22 307.179 753.22 307.179Z" fill="black"/>
<path d="M719.571 431.969L728.723 452.453L735.723 443.828L721.725 425.5L719.571 431.969Z" fill="#A0616A"/>
<path d="M695.076 637.078L691.307 658.102L684.846 667.266L688.615 669.422L695.076 668.343L702.613 665.648L705.843 653.25L711.765 637.078H695.076Z" fill="#A0616A"/>
<path d="M763.988 624.141L761.834 654.329L767.218 658.641L775.832 651.094V628.993L763.988 624.141Z" fill="#A0616A"/>
<path d="M762.103 313.378C772.807 313.378 781.485 304.689 781.485 293.972C781.485 283.254 772.807 274.566 762.103 274.566C751.399 274.566 742.722 283.254 742.722 293.972C742.722 304.689 751.399 313.378 762.103 313.378Z" fill="#A0616A"/>
<path d="M777.059 320.073C776.478 319.793 775.844 319.642 775.199 319.629C774.555 319.617 773.915 319.744 773.324 320.001C772.149 320.522 771.007 321.118 769.907 321.784C767.078 323.258 763.871 323.842 760.706 323.46C760.334 323.432 759.97 323.338 759.63 323.183C759.27 322.959 758.939 322.691 758.645 322.386C757.497 321.453 756.032 321.002 754.558 321.129C753.085 321.256 751.719 321.951 750.747 323.068C750.178 323.778 749.788 324.626 749.167 325.291C747.558 327.014 744.903 327.083 742.548 327.079C737.664 326.943 732.782 327.391 728.005 328.414C723.206 329.451 718.786 331.796 715.234 335.189C714.265 336.102 713.492 337.204 712.965 338.428C712.316 340.105 712.401 341.989 711.817 343.691C711.167 345.585 709.727 347.14 709.144 349.056C708.705 350.5 708.766 352.107 708.031 353.424C711.177 356.151 713.843 359.787 716.989 362.514C719.072 364.319 721.254 366.272 722.037 368.917C722.389 370.547 722.545 372.214 722.502 373.882C722.892 381.856 727.211 389.089 732.041 395.441C733.365 397.325 734.95 399.01 736.748 400.448C739.189 402.112 741.961 403.227 744.873 403.715C750.374 404.841 756.035 404.835 761.648 404.78C767.45 404.722 773.354 404.599 778.869 402.794C781.675 402.009 784.2 400.439 786.147 398.268C788.416 395.479 789.3 391.444 792.395 389.616C793.144 389.272 793.854 388.848 794.512 388.351C795.142 387.666 795.588 386.832 795.808 385.927C796.891 382.542 797.487 379.019 797.58 375.465C797.501 373.333 797.645 371.198 798.011 369.095C798.546 367.243 799.326 365.47 800.33 363.824L806.743 352.179C807.264 351.232 807.129 349.839 807.176 348.76C807.129 347.203 806.651 345.689 805.797 344.388C801.637 337.027 795.103 331.3 787.266 328.146C786.648 327.935 786.06 327.647 785.515 327.287C784.874 326.747 784.332 326.099 783.913 325.373C782.211 322.805 780.132 319.912 777.059 320.073Z" fill="#D0CDE1"/>
<path d="M697.132 383.496C695.867 386.574 694.938 389.781 694.362 393.059C693.743 397.589 694.472 402.2 696.459 406.316C699.915 413.439 706.719 418.27 711.521 424.562C715.983 430.409 718.64 437.416 722.504 443.674C721.83 442.081 722.649 440.237 723.751 438.905C724.854 437.572 726.263 436.468 727.072 434.939C727.622 433.754 727.968 432.486 728.095 431.186C728.672 427.305 728.983 423.088 727.007 419.7C725.519 417.15 722.95 415.456 720.916 413.317C718.881 411.141 717.386 408.517 716.551 405.656C715.715 402.795 715.562 399.778 716.105 396.847C716.496 394.83 717.216 392.893 717.756 390.91C718.423 388.245 718.929 385.542 719.269 382.815L721.694 366.142C722.339 361.708 722.884 356.8 720.376 353.089C719.886 352.312 719.21 351.671 718.408 351.225C717.744 350.921 717.038 350.722 716.314 350.634C713.675 350.203 710.101 349.046 708.813 351.877C707.258 355.293 706.175 359.018 704.874 362.54L697.132 383.496Z" fill="#D0CDE1"/>
<path d="M789.532 392.618C789.532 392.618 757.527 398.817 749.99 398.817H736.53C736.53 398.817 731.685 407.442 731.685 416.067C731.685 424.692 699.921 545.44 699.921 545.44C699.921 545.44 669.771 644.625 703.151 645.164C736.53 645.703 757.527 647.321 758.065 636.001C758.604 624.681 761.834 478.597 761.834 478.597L766.859 553.713C768.21 572.308 766.768 591.002 762.58 609.169C760.17 619.354 760.544 630.52 772.602 632.766C795.752 637.079 824.824 633.305 824.824 625.22C824.824 617.134 809.75 437.629 809.75 437.629C809.75 437.629 802.213 411.216 797.906 409.059C793.598 406.903 789.532 392.618 789.532 392.618Z" fill="#2F2E41"/>
<path d="M689.153 666.187L700.998 661.875L709.073 641.391L717.687 640.313C717.687 640.313 712.842 650.555 710.15 652.172C707.458 653.789 703.151 667.266 703.151 667.266C703.151 667.266 705.305 672.656 695.075 674.812C684.846 676.969 677.309 678.586 677.309 678.586C677.309 678.586 676.232 676.429 681.078 671.039C685.923 665.648 691.581 656.573 691.581 656.573L689.153 666.187Z" fill="#2F2E41"/>
<path d="M761.834 641.391L759.681 657.563C759.681 657.563 765.603 666.187 767.218 666.187C768.833 666.187 777.447 658.641 777.447 658.641C777.447 658.641 776.909 650.555 777.447 648.399C777.986 646.242 779.062 636 777.447 635.461C775.832 634.922 775.832 647.476 775.832 647.476L768.833 654.867L762.085 650.816L761.834 641.391Z" fill="#2F2E41"/>
<path d="M763.718 293.972C775.315 293.972 784.715 288.904 784.715 282.652C784.715 276.4 775.315 271.332 763.718 271.332C752.122 271.332 742.722 276.4 742.722 282.652C742.722 288.904 752.122 293.972 763.718 293.972Z" fill="#2F2E41"/>
<path d="M0 504.8C0 568.302 39.7881 619.687 88.9586 619.687Z" fill="#3F3D56"/>
<path d="M88.959 619.687C88.959 555.472 133.36 503.509 188.232 503.509Z" fill="#6C63FF"/>
<path d="M32.231 510.556C32.231 570.877 57.6031 619.687 88.9582 619.687Z" fill="#6C63FF"/>
<path d="M88.959 619.687C88.959 537.634 140.28 471.237 203.703 471.237Z" fill="#3F3D56"/>
<path d="M70.2441 620.497C70.2441 620.497 82.8599 620.108 86.662 617.397C90.4641 614.687 106.068 611.45 107.011 615.797C107.955 620.145 125.971 637.42 111.728 637.535C97.4843 637.65 78.6327 635.314 74.838 632.999C71.0432 630.685 70.2441 620.497 70.2441 620.497Z" fill="#A8A8A8"/>
<path opacity="0.2" d="M111.982 636.022C97.7385 636.137 78.8869 633.8 75.0922 631.486C72.2022 629.723 71.0506 623.399 70.6653 620.481C70.3985 620.492 70.2441 620.497 70.2441 620.497C70.2441 620.497 71.0432 630.685 74.838 632.999C78.6328 635.314 97.4844 637.65 111.728 637.535C115.839 637.502 117.259 636.037 117.181 633.868C116.61 635.178 115.042 635.997 111.982 636.022Z" fill="black"/>
</g>
<defs>
<clipPath id="clip0_310_18">
<rect width="1027" height="799" fill="white"/>
</clipPath>
</defs>
</svg>
