<svg width="1027" height="799" viewBox="0 0 1027 799" fill="none" xmlns="http://www.w3.org/2000/svg">
<g clip-path="url(#clip0_310_161)">
<path opacity="0.1" d="M1007.14 212.589C996.969 188.98 983.229 167.077 966.401 147.65L401.223 142.08L866.555 76.6905C836.494 64.7134 804.491 58.3605 772.137 57.9479C727.623 22.3504 672.813 2.08002 615.86 0.151884C558.906 -1.77625 502.852 14.7409 456.035 47.2465C418.62 28.0035 377.144 18.0033 335.076 18.0824C209.499 18.0824 104.854 105.094 81.3823 220.49L1007.14 212.589Z" fill="#6C63FF"/>
<path opacity="0.1" d="M1027.01 309.363C1027.04 278.071 1021.06 247.065 1009.4 218.03L29.87 320.894C19.7691 339.172 12.0426 358.666 6.87783 378.902L310.204 424.148L-0.0498047 457.153C9.28701 587.781 121.219 690.935 257.952 690.935C326.779 690.935 389.328 664.792 435.662 622.166C482.156 665.602 545.294 692.305 614.861 692.305C718.085 692.305 807.175 633.507 848.661 548.485C931.903 522.062 996.561 455.693 1018.69 372.671L635.144 313.103H1027.01C1026.99 311.853 1027.01 310.613 1027.01 309.363Z" fill="#6C63FF"/>
<path d="M286.582 799C411.908 799 513.505 782.338 513.505 761.785C513.505 741.232 411.908 724.57 286.582 724.57C161.256 724.57 59.6597 741.232 59.6597 761.785C59.6597 782.338 161.256 799 286.582 799Z" fill="#6C63FF"/>
<path d="M521.273 522.052C511.066 524.612 500.59 519.632 500.59 519.632C500.59 519.632 491.653 509.28 484.115 507.88C476.578 506.48 473.659 518.731 469.18 521.882C466.081 524.092 443.729 522.512 430.194 521.332L427.864 521.122C427.635 520.952 427.405 520.772 427.155 520.612C427.155 520.612 414.159 516.611 411.45 513.071C408.741 509.53 390.637 502.979 385.019 503.359C379.401 503.739 362.797 504.64 362.797 504.64C362.797 504.64 356.289 497.228 353.35 497.999C350.411 498.769 340.194 497.939 340.194 497.939C340.194 497.939 337.385 490.718 334.576 480.366C333.267 475.535 328.908 472.145 324.64 469.915C328.478 456.913 321.641 419.828 300.408 412.577C295.779 410.997 293.41 405.746 289.472 402.866C285.943 400.295 280.165 394.234 282.994 383.283C286.992 367.951 296.909 343.807 296.909 343.807L304.297 329.045C303.607 330.091 302.824 331.072 301.957 331.976C302.957 330.696 303.957 329.435 304.816 328.375C312.189 332.101 320.229 334.317 328.468 334.896C336.805 338.267 345.133 341.237 348.372 341.127C355.779 340.867 374.673 350.328 374.673 350.328C374.673 350.328 420.127 363.33 429.574 364.38C439.021 365.43 443.619 353.139 443.619 353.139C443.619 353.139 448.527 328.905 439.81 322.484C431.093 316.064 426.025 345.488 426.025 345.488L366.555 324.045L362.887 322.114C365.735 319.099 367.996 315.578 369.554 311.733C370.474 309.443 371.314 306.822 373.503 305.682C374.092 305.389 374.728 305.203 375.382 305.132C375.925 305.097 376.469 305.097 377.012 305.132C387.328 305.762 396.195 313.883 406.532 313.923C406.912 313.923 407.291 313.923 407.671 313.923C409.642 313.917 411.566 313.326 413.199 312.223C414.122 311.472 414.88 310.539 415.426 309.483C415.973 308.427 416.297 307.269 416.378 306.082C416.228 306.404 416.061 306.718 415.879 307.022C416.148 305.551 416.148 304.043 415.879 302.572C415.239 299.061 413.409 295.911 411.77 292.74C411.306 292.001 411.044 291.152 411.01 290.28C411.057 289.825 411.195 289.383 411.417 288.983C411.638 288.582 411.939 288.231 412.3 287.95C412.315 288.044 412.335 288.137 412.36 288.23C413.139 287.496 414.005 286.862 414.939 286.339C417.465 284.682 419.625 282.522 421.282 279.995C422.94 277.467 424.061 274.626 424.576 271.647C424.326 272.388 424.026 273.118 423.706 273.838C425.243 268.761 424.87 263.296 422.656 258.476C422.083 257.104 421.167 255.902 419.997 254.985C416.268 252.365 411.26 255.155 406.712 255.455C402.713 255.715 398.834 253.925 395.226 252.115C389.068 249.024 382.94 245.684 377.811 241.113C371.983 235.883 367.655 229.212 362.397 223.421C357.139 217.63 350.391 212.469 342.563 211.889C328.338 210.789 314.923 224.891 301.398 220.29C294.8 218.06 290.461 211.959 285.873 206.718C281.284 201.478 274.977 196.447 268.099 197.577C263.321 198.377 259.182 202.088 254.344 201.948C251.814 201.868 249.465 200.738 247.066 199.948C241.258 197.997 233.301 198.947 231.231 204.728C230.825 205.906 230.681 207.158 230.811 208.397C230.94 209.636 231.34 210.831 231.981 211.899C231.675 212.329 231.401 212.78 231.161 213.249C230.665 214.166 230.492 215.223 230.672 216.25C226.56 219.942 223.514 224.669 221.85 229.94C220.186 235.21 219.965 240.831 221.211 246.216C222.456 251.6 225.123 256.553 228.932 260.556C232.741 264.559 237.553 267.467 242.867 268.977C243.057 269.707 243.247 270.437 243.427 271.177C245.367 279.348 246.376 288.55 243.507 294.751C243.327 295.131 243.137 295.501 242.927 295.861L242.678 295.971L242.318 295.601L240.138 293.32C240.018 290.94 238.679 284.559 229.362 272.718C217.096 257.125 214.797 231.322 214.797 231.322C214.797 231.322 211.738 218.04 214.797 214.21C217.856 210.379 222.974 168.203 222.974 168.203L231.431 144.46C231.431 144.46 272.547 102.554 255.423 97.4534C243.797 93.983 229.932 111.865 222.235 123.687C218.454 129.492 216.009 136.064 215.077 142.93L191.835 206.548C191.835 206.548 189.536 214.22 191.835 227.501C194.134 240.783 199.242 264.296 199.242 264.296L212.238 297.251C212.238 297.251 217.026 311.483 216.606 317.664C216.037 318.034 214.037 321.994 212.308 325.595L211.038 327.595L210.948 328.405C210.099 330.216 209.509 331.516 209.509 331.516C209.509 331.516 202.271 352.889 208.319 366C214.367 379.112 214.607 385.193 214.607 385.193L219.116 404.616L220.995 421.618L237.209 461.734L252.144 483.067C252.144 483.067 250.745 498.779 247.676 500.949C244.607 503.119 246.016 514.361 246.016 514.361L244.097 543.865C244.097 543.865 238.099 552.686 237.719 566.988C237.339 581.29 235.16 585.391 235.16 585.391C235.16 585.391 234.16 597.392 236.949 602.893C239.739 608.394 232.481 614.135 232.481 614.135L238.709 635.528L236.28 662.611C236.28 662.611 237.409 662.921 239.279 663.391L238.899 665.332L228.742 716.639C228.742 716.639 223.254 730.701 223.004 734.011L205.25 766.085C205.25 766.085 190.435 780.778 197.463 782.178C204.491 783.578 224.924 770.936 224.924 770.936C224.924 770.936 241.778 752.794 248.416 751.143C255.053 749.493 262.411 744.743 260.292 737.852C258.172 730.961 253.294 720.479 257.992 709.358C260.991 702.357 267.369 683.354 271.748 670.092C271.988 669.362 272.217 668.662 272.447 667.982C273.606 667.878 274.751 667.66 275.866 667.332C286.593 664.011 292.211 666.332 292.211 666.332L311.364 588.791L315.573 549.886L342.394 572.269C347.7 576.697 354.289 579.302 361.187 579.7C371.754 580.32 388.238 581.85 400.174 585.541L405.172 564.718C405.172 564.718 419.467 565.238 422.536 560.377C423.786 558.377 425.015 556.677 426.025 555.376L428.344 555.016L491.613 545.225C503.359 545.225 519.453 537.294 519.453 537.294L529.29 535.384C529.29 535.384 543.965 532.443 545.284 530.013C546.604 527.583 531.499 519.512 521.273 522.052Z" fill="url(#paint0_linear_310_161)"/>
<path d="M234.18 209.739C236.179 204.098 243.997 203.148 249.685 205.058C252.024 205.838 254.333 206.949 256.802 207.059C261.541 207.199 265.589 203.558 270.268 202.788C276.996 201.668 283.164 206.588 287.652 211.719C292.14 216.85 296.399 222.821 302.857 225.011C316.082 229.472 329.218 215.71 343.133 216.78C350.77 217.37 357.368 222.401 362.516 228.071C367.665 233.742 371.903 240.263 377.601 245.384C382.6 249.884 388.598 253.155 394.646 256.185C398.174 257.956 401.943 259.706 405.882 259.446C410.34 259.156 415.238 256.445 418.877 258.986C420.022 259.884 420.917 261.062 421.476 262.406C425.955 271.727 422.346 284.139 413.579 289.62C412.05 290.57 410.19 291.62 410.1 293.45C410.129 294.305 410.384 295.137 410.84 295.861C412.439 298.961 414.239 302.052 414.839 305.482C415.438 308.913 414.629 312.863 411.84 314.943C410.019 316.155 407.856 316.748 405.672 316.634C395.555 316.584 386.878 308.633 376.782 308.022C375.49 307.875 374.182 308.075 372.993 308.603C370.854 309.713 369.994 312.283 369.124 314.523C364.446 326.215 352.83 334.346 340.434 336.576C328.038 338.807 315.093 335.666 303.996 329.705C303.185 329.317 302.44 328.804 301.787 328.185C300.861 327.06 300.207 325.735 299.878 324.315C296.479 313.563 291.881 302.312 282.464 296.101C276.356 292.1 268.069 289.85 265.3 283.099C263.56 278.828 264.65 273.978 264.21 269.377C263.777 265.433 262.241 261.69 259.777 258.58C257.314 255.47 254.024 253.118 250.285 251.795C248.645 251.245 246.846 250.855 245.646 249.604C244.672 248.377 244.05 246.908 243.847 245.354C242.357 238.583 241.368 231.432 239.288 224.821C237.699 219.64 232.051 215.67 234.18 209.739Z" fill="#663D5B"/>
<g opacity="0.1">
<path d="M413.009 311.833C411.182 313.028 409.021 313.606 406.841 313.483C396.735 313.483 388.058 305.482 377.961 304.882C376.67 304.73 375.362 304.927 374.172 305.452C372.023 306.562 371.173 309.133 370.304 311.373C365.625 323.074 353.999 331.206 341.603 333.436C329.208 335.666 316.262 332.526 305.176 326.565C304.365 326.176 303.62 325.663 302.967 325.045C302.042 323.918 301.389 322.594 301.057 321.174C297.658 310.413 293.06 299.171 283.643 292.95C277.525 288.9 269.238 286.709 266.479 279.948C264.73 275.668 265.819 270.817 265.389 266.227C264.958 262.28 263.421 258.536 260.955 255.425C258.49 252.315 255.196 249.964 251.454 248.644C249.815 248.094 248.015 247.694 246.816 246.454C245.841 245.224 245.222 243.751 245.026 242.193C243.527 235.432 242.547 228.271 240.468 221.67C239.068 217.25 234.66 213.669 234.88 208.949C234.75 209.198 234.637 209.455 234.54 209.719C232.401 215.65 238.059 219.62 239.668 224.721C241.747 231.322 242.727 238.483 244.227 245.244C244.422 246.801 245.041 248.275 246.016 249.504C247.216 250.744 249.015 251.145 250.654 251.695C254.398 253.015 257.693 255.367 260.158 258.48C262.624 261.593 264.16 265.339 264.59 269.287C265.019 273.878 263.93 278.728 265.679 283.009C268.438 289.8 276.726 292.01 282.843 296.011C292.24 302.242 296.839 313.473 300.257 324.235C300.589 325.654 301.242 326.978 302.167 328.105C302.82 328.723 303.565 329.236 304.376 329.625C315.462 335.626 328.368 338.717 340.804 336.496C353.239 334.276 364.796 326.135 369.504 314.433C370.404 312.193 371.233 309.623 373.373 308.512C374.562 307.988 375.87 307.791 377.161 307.942C387.258 308.552 395.935 316.504 406.041 316.544C408.224 316.658 410.386 316.069 412.209 314.863C413.113 314.131 413.856 313.22 414.393 312.187C414.929 311.155 415.248 310.023 415.328 308.862C414.823 310.036 414.024 311.059 413.009 311.833Z" fill="black"/>
<path d="M414.748 286.479C413.219 287.48 411.35 288.48 411.26 290.31C411.251 290.677 411.308 291.043 411.43 291.39C412.189 290.671 413.035 290.049 413.949 289.54C416.422 287.919 418.535 285.807 420.156 283.335C421.778 280.862 422.874 278.082 423.376 275.168C421.898 279.825 418.848 283.824 414.748 286.479Z" fill="black"/>
</g>
<path d="M260.341 703.537C255.713 714.418 260.471 724.66 262.591 731.421C264.71 738.182 257.472 742.792 250.975 744.423C244.477 746.053 227.982 763.795 227.982 763.795C227.982 763.795 207.989 776.167 201.112 774.797C194.234 773.426 208.729 759.045 208.729 759.045L226.103 727.66C226.353 724.42 231.721 710.658 231.721 710.658L241.658 660.451L242.977 653.78L278.205 651.65C278.205 651.65 276.356 657.371 273.807 665.102C269.518 678.103 263.24 696.746 260.341 703.537Z" fill="#CC818C"/>
<path d="M541.495 528.043C540.246 530.423 525.881 533.293 525.881 533.293L516.254 535.164C516.254 535.164 500.509 542.925 489.013 542.925L427.094 552.516L418.787 553.806V518.661C418.787 518.661 422.966 519.101 428.884 519.662C442.109 520.822 463.992 522.362 467.021 520.202C471.399 517.081 474.268 505.08 481.636 506.46C489.003 507.84 497.76 517.961 497.76 517.961C497.76 517.961 508.007 522.832 518.003 520.332C528 517.831 542.745 525.662 541.495 528.043Z" fill="#CC818C"/>
<path opacity="0.1" d="M429.284 549.796C429.284 549.796 428.394 550.796 427.094 552.506L418.787 553.796V518.661C418.787 518.661 422.966 519.101 428.884 519.662C438.82 527.513 429.284 549.796 429.284 549.796Z" fill="black"/>
<path d="M309.705 541.675L342.963 569.438C348.158 573.771 354.606 576.319 361.357 576.709C371.693 577.319 387.828 578.81 399.544 582.43L404.422 562.047C404.422 562.047 418.418 562.547 421.417 557.797C423.178 554.992 425.139 552.318 427.285 549.796C427.285 549.796 437.411 526.172 425.915 518.921C425.915 518.921 413.169 515.041 410.54 511.54C407.911 508.04 390.177 501.669 384.679 502.039C379.181 502.409 362.936 503.289 362.936 503.289C362.936 503.289 356.559 496.038 353.69 496.788C350.821 497.538 340.814 496.788 340.814 496.788C340.814 496.788 338.065 489.717 335.316 479.586C332.567 469.455 316.202 465.834 316.202 465.834L309.705 541.675Z" fill="#565987"/>
<path opacity="0.1" d="M309.705 541.675L342.963 569.438C348.158 573.771 354.606 576.319 361.357 576.709C371.693 577.319 387.828 578.81 399.544 582.43L404.422 562.047C404.422 562.047 418.418 562.547 421.417 557.797C423.178 554.992 425.139 552.318 427.285 549.796C427.285 549.796 437.411 526.172 425.915 518.921C425.915 518.921 413.169 515.041 410.54 511.54C407.911 508.04 390.177 501.669 384.679 502.039C379.181 502.409 362.936 503.289 362.936 503.289C362.936 503.289 356.559 496.038 353.69 496.788C350.821 497.538 340.814 496.788 340.814 496.788C340.814 496.788 338.065 489.717 335.316 479.586C332.567 469.455 316.202 465.834 316.202 465.834L309.705 541.675Z" fill="black"/>
<path d="M294.829 292.76L291.151 293.45H290.921L290.381 293.55L284.083 294.721L282.144 297.021L282.064 297.101L275.836 304.482L270.588 309.633L270.538 309.693L266.099 314.013L258.592 321.484L257.332 324.595L254.593 331.486L253.883 333.236L246.386 341.237L241.598 351.488L230.401 357.989L218.356 351.738L212.857 343.737L214.107 332.276L214.357 329.985L218.026 324.095L221.355 318.734L227.852 309.483L240.348 300.981L242.587 300.391L245.096 299.731C245.288 299.458 245.465 299.174 245.626 298.881C245.838 298.529 246.028 298.165 246.196 297.791C249.005 291.73 248.015 282.719 246.116 274.728C244.66 268.75 242.732 262.897 240.348 257.225L273.337 252.475C273.337 252.475 273.017 258.876 273.017 268.857C273.017 271.357 273.017 274.068 273.087 276.968C273.247 285.969 281.604 289.87 287.912 291.53C289.536 291.963 291.185 292.297 292.85 292.53C294.07 292.72 294.829 292.76 294.829 292.76Z" fill="#CC818C"/>
<path d="M242.847 297.481C242.847 297.481 244.347 291.48 232.351 276.228C220.355 260.976 218.106 235.722 218.106 235.722C218.106 235.722 215.107 222.721 218.106 218.97C221.105 215.22 226.103 173.964 226.103 173.964L234.35 150.711C234.35 150.711 274.587 109.705 257.842 104.704C246.466 101.304 232.851 118.816 225.363 130.378C221.665 136.059 219.275 142.492 218.366 149.211L195.613 211.469C195.613 211.469 193.364 218.97 195.613 231.972C197.863 244.974 202.861 267.977 202.861 267.977L215.607 300.261C215.607 300.261 222.314 320.364 218.836 322.814L226.603 311.323L242.847 297.481Z" fill="#CC818C"/>
<path d="M442.029 355.019C442.029 355.019 437.531 367.021 428.284 366.02C419.037 365.02 374.552 352.269 374.552 352.269C374.552 352.269 356.058 343.017 348.811 343.267C341.563 343.517 308.325 328.015 308.325 328.015C308.325 328.015 305.986 331.096 303.376 334.336C300.537 337.887 297.378 341.637 296.579 341.767C295.079 342.017 271.837 345.268 271.837 345.268L256.093 338.017L254.593 331.486L253.883 328.485L257.372 324.595L261.961 319.484L270.568 309.663L270.618 309.603L282.104 297.111L282.184 297.031L289.541 294.03L290.961 293.45H291.191C292.07 293.3 295.449 292.99 299.978 295.551C303.131 297.337 306.633 298.422 310.244 298.731C317.432 299.244 324.238 302.161 329.568 307.012L366.555 326.485L424.785 347.488C424.785 347.488 429.783 318.734 438.28 324.985C446.778 331.236 442.029 355.019 442.029 355.019Z" fill="#CC818C"/>
<path opacity="0.1" d="M303.377 334.336C300.538 337.887 297.379 341.637 296.579 341.767C295.079 342.017 271.837 345.268 271.837 345.268L256.093 338.017L254.593 331.486L253.883 333.236L246.386 341.237L241.598 351.488L230.401 357.989L218.356 351.738L212.857 343.737L214.107 332.276C214.737 330.916 216.456 327.215 218.026 324.095C218.767 322.375 219.699 320.745 220.805 319.234C221.804 318.574 222.854 311.483 222.854 311.483C227.392 298.391 242.597 296.381 242.597 296.381L245.026 298.661L246.086 299.761C245.656 299.691 246.166 298.761 245.616 298.911C244.737 299.161 244.347 300.491 243.217 301.221C237.069 305.222 227.462 314.553 223.664 318.984C222.744 320.054 221.794 321.104 220.825 322.124C215.337 327.935 216.346 335.636 216.346 335.636C214.977 341.637 227.093 346.138 227.093 346.138C230.471 340.517 253.334 325.015 253.334 325.015L268.728 307.762C273.447 299.541 282.724 294.11 287.902 291.57C290.191 290.45 291.691 289.89 291.691 289.89L297.449 292.35C295.928 291.943 294.32 292.013 292.84 292.55C291.99 292.813 291.164 293.148 290.371 293.55C290.071 293.7 289.771 293.86 289.491 294.03C287.917 294.945 286.437 296.014 285.073 297.221L272.137 311.353C262.251 322.144 269.698 339.597 284.323 339.847H284.453C293.39 341.907 299.798 337.766 303.377 334.336Z" fill="black"/>
<path opacity="0.1" d="M278.205 651.68C278.205 651.68 276.356 657.4 273.807 665.132C264.03 665.862 247.886 662.081 241.658 660.481L242.977 653.81L278.205 651.68Z" fill="black"/>
<path d="M246.096 299.761L242.897 296.481C242.897 296.481 231.351 298.061 224.184 310.403C224.184 310.403 220.835 319.654 219.805 320.314C218.776 320.974 212.858 333.906 212.858 333.906C212.858 333.906 205.78 354.819 211.688 367.661C217.596 380.502 217.856 386.413 217.856 386.413L222.274 405.416L224.104 422.078L239.978 461.333L254.593 482.166C254.593 482.166 253.224 497.538 250.225 499.669C247.226 501.799 248.595 512.791 248.595 512.791L246.726 541.675C246.726 541.675 240.848 550.296 240.478 564.298C240.108 578.3 237.979 582.3 237.979 582.3C237.979 582.3 236.979 594.052 239.728 599.432C242.477 604.813 235.35 610.434 235.35 610.434L241.478 631.307L239.099 657.811C239.099 657.811 267.339 665.692 277.835 662.441C288.332 659.191 293.83 661.441 293.83 661.441L312.574 585.521L319.071 525.892C319.071 525.892 319.451 483.637 325.069 470.755C329.888 459.753 323.57 420.558 301.867 413.157C297.339 411.617 295.04 406.476 291.171 403.656C287.712 401.145 282.064 395.214 284.833 384.493C288.712 369.491 298.458 345.868 298.458 345.868L305.676 331.486C305.676 331.486 297.829 344.187 283.463 340.937H283.334C268.708 340.677 261.261 323.224 271.148 312.443L284.083 298.301C284.083 298.301 291.211 291.73 296.459 293.39L290.711 290.93C290.711 290.93 274.527 296.931 267.719 308.803L252.324 326.055C252.324 326.055 229.482 341.487 226.103 347.148C226.103 347.148 213.987 342.647 215.357 336.646C215.357 336.646 214.357 328.935 219.835 323.124C220.835 322.124 221.754 321.064 222.674 319.994C227.603 314.233 241.228 298.951 246.096 299.761Z" fill="#565987"/>
<path opacity="0.1" d="M247.976 402.775C247.976 402.775 244.346 429.159 247.096 434.53L247.976 402.775Z" fill="black"/>
<path opacity="0.1" d="M250.345 413.027L254.223 428.159C254.223 428.159 255.593 418.908 250.345 413.027Z" fill="black"/>
<path opacity="0.1" d="M227.353 409.496C227.353 409.496 235.1 448.002 243.597 459.633Z" fill="black"/>
<path opacity="0.1" d="M281.964 455.913C281.964 455.913 268.719 468.415 263.59 467.504C263.59 467.504 283.963 468.385 290.331 457.633C290.331 457.663 286.213 454.663 281.964 455.913Z" fill="black"/>
<path opacity="0.1" d="M300.328 454.913C300.328 454.913 283.334 467.284 279.965 468.414C279.965 468.414 298.329 463.164 300.328 454.913Z" fill="black"/>
<path opacity="0.1" d="M242.847 363.02C242.847 363.02 234.35 373.901 230.102 372.651C230.102 372.651 240.478 373.021 242.847 363.02Z" fill="black"/>
<path opacity="0.1" d="M252.474 377.022C252.474 377.022 270.968 351.898 279.715 352.899C279.715 352.899 258.722 371.151 252.474 377.022Z" fill="black"/>
<path opacity="0.1" d="M278.085 367.881C278.085 367.881 266.339 373.771 267.589 375.492C268.838 377.212 278.085 367.881 278.085 367.881Z" fill="black"/>
<path opacity="0.1" d="M286.582 560.797C286.582 560.797 247.346 583.68 243.727 584.801C243.727 584.801 250.475 589.931 256.843 587.431C263.21 584.931 286.582 560.797 286.582 560.797Z" fill="black"/>
<path opacity="0.1" d="M253.724 608.434C253.724 608.434 237.979 606.804 238.599 611.934C239.219 617.064 253.724 608.434 253.724 608.434Z" fill="black"/>
<path opacity="0.1" d="M273.337 252.475C273.337 252.475 273.017 258.876 273.017 268.857C269.315 271.892 264.947 274.005 260.271 275.024C255.595 276.043 250.744 275.938 246.116 274.718C244.66 268.74 242.732 262.887 240.348 257.215L273.337 252.475Z" fill="black"/>
<path d="M253.844 273.768C270.545 273.768 284.083 260.222 284.083 243.514C284.083 226.805 270.545 213.259 253.844 213.259C237.143 213.259 223.604 226.805 223.604 243.514C223.604 260.222 237.143 273.768 253.844 273.768Z" fill="#CC818C"/>
<path opacity="0.1" d="M261.771 261.976C262.621 274.348 265.22 288.5 275.956 294.721C283.714 299.211 293.49 298.031 302.077 295.471C310.664 292.91 319.071 289.09 328.008 288.66C334.876 288.33 341.664 290.02 348.511 290.45C355.359 290.88 362.857 289.81 367.745 284.989C374.743 278.128 373.463 265.657 366.835 258.446C360.207 251.235 349.841 248.614 340.024 248.884C328.028 249.214 314.633 252.885 305.146 245.604C298.778 240.703 296.369 232.202 291.011 226.211C282.064 216.21 242.498 201.768 234.12 218.07C230.192 225.701 248.046 231.152 252.184 236.673C258.722 245.384 260.991 250.555 261.771 261.976Z" fill="black"/>
<path d="M262.701 260.906C263.56 273.288 266.149 287.44 276.886 293.65C284.643 298.141 294.42 296.961 303.007 294.41C311.594 291.86 320.001 288.03 328.948 287.6C335.806 287.269 342.593 288.95 349.451 289.39C356.309 289.83 363.786 288.75 368.675 283.929C375.672 277.058 374.393 264.596 367.765 257.385C361.137 250.174 350.771 247.554 340.964 247.824C328.968 248.144 315.563 251.825 306.076 244.534C299.708 239.633 297.299 231.142 291.941 225.141C282.994 215.14 243.427 200.708 235.05 217.01C231.121 224.631 248.975 230.082 253.124 235.612C259.652 244.314 261.921 249.474 262.701 260.906Z" fill="#663D5B"/>
<path opacity="0.1" d="M226.333 346.128C226.797 342.18 228.097 338.378 230.147 334.973C232.196 331.569 234.948 328.641 238.219 326.385" fill="black"/>
<path opacity="0.1" d="M339.714 502.789C339.621 503.77 339.382 504.73 339.005 505.64C337.695 509.566 336.118 513.399 334.286 517.111C336.955 516.881 339.154 514.781 340.284 512.361C341.271 509.87 341.816 507.227 341.894 504.549C341.992 503.713 342.015 502.87 341.964 502.029C341.894 501.249 341.394 498.269 340.104 498.799C339.065 499.239 339.734 501.999 339.714 502.789Z" fill="black"/>
<path opacity="0.1" d="M370.474 280.799C365.576 285.619 358.098 286.699 351.24 286.259C344.383 285.819 337.565 284.139 330.737 284.479C321.741 284.909 313.403 288.73 304.806 291.29C296.209 293.85 286.443 295.031 278.675 290.54C267.949 284.319 265.35 270.167 264.5 257.795C263.72 246.374 261.441 241.203 254.913 232.492C250.965 227.221 234.57 222.021 236.45 214.94C235.906 215.578 235.437 216.276 235.05 217.02C231.121 224.641 248.975 230.092 253.124 235.622C259.652 244.324 261.921 249.504 262.701 260.916C263.56 273.298 266.149 287.45 276.886 293.66C284.643 298.151 294.42 296.971 303.007 294.421C311.594 291.87 320.001 288.04 328.948 287.61C335.806 287.28 342.593 288.96 349.451 289.4C356.309 289.84 363.786 288.76 368.675 283.939C370.063 282.561 371.167 280.923 371.923 279.118C371.484 279.715 371 280.277 370.474 280.799Z" fill="black"/>
<path d="M224.164 371.741L220.495 379.742L232.161 377.412L224.164 371.741Z" fill="#CC818C"/>
<path opacity="0.1" d="M224.164 371.741L221.145 379.742H220.495L224.164 371.741Z" fill="black"/>
<path opacity="0.1" d="M512.845 734.901C535.481 734.901 553.831 732.38 553.831 729.27C553.831 726.161 535.481 723.64 512.845 723.64C490.209 723.64 471.859 726.161 471.859 729.27C471.859 732.38 490.209 734.901 512.845 734.901Z" fill="#6C63FF"/>
<path opacity="0.1" d="M669.842 750.823C692.477 750.823 710.828 748.302 710.828 745.193C710.828 742.083 692.477 739.562 669.842 739.562C647.206 739.562 628.855 742.083 628.855 745.193C628.855 748.302 647.206 750.823 669.842 750.823Z" fill="#6C63FF"/>
<path opacity="0.1" d="M854.769 729.27C877.405 729.27 895.755 726.749 895.755 723.64C895.755 720.53 877.405 718.009 854.769 718.009C832.133 718.009 813.783 720.53 813.783 723.64C813.783 726.749 832.133 729.27 854.769 729.27Z" fill="#6C63FF"/>
<path opacity="0.1" d="M607.003 794.539C623.091 794.539 636.133 792.748 636.133 790.539C636.133 788.329 623.091 786.538 607.003 786.538C590.915 786.538 577.873 788.329 577.873 790.539C577.873 792.748 590.915 794.539 607.003 794.539Z" fill="#6C63FF"/>
<path opacity="0.1" d="M769.947 790.539C786.036 790.539 799.077 788.748 799.077 786.538C799.077 784.329 786.036 782.538 769.947 782.538C753.859 782.538 740.817 784.329 740.817 786.538C740.817 788.748 753.859 790.539 769.947 790.539Z" fill="#6C63FF"/>
<path d="M670.731 743.932C670.731 743.932 613.251 555.406 679.728 479.896C729.451 423.408 785.902 430.169 811.184 437.15C817.725 438.893 823.81 442.038 829.016 446.368C834.222 450.697 838.425 456.107 841.333 462.224C850.17 481.306 848.581 512.231 786.192 548.405C681.728 608.914 675.23 691.925 675.23 691.925L670.731 743.932Z" fill="#6C63FF"/>
<path d="M802.187 463.894C802.187 463.894 632.745 516.901 670.732 743.932" stroke="#565987" stroke-miterlimit="10"/>
<path d="M703.22 482.896C703.22 482.896 726.542 498.629 719.135 522.262" stroke="#565987" stroke-miterlimit="10"/>
<path d="M785.193 496.898C785.193 496.898 770.928 482.376 753.563 490.388" stroke="#565987" stroke-miterlimit="10"/>
<path d="M718.215 569.908C718.215 569.908 693.164 557.187 686.686 573.119" stroke="#565987" stroke-miterlimit="10"/>
<path d="M656.236 596.412C656.236 596.412 675.04 594.912 675.38 603.913" stroke="#565987" stroke-miterlimit="10"/>
<path d="M668.452 745.433C668.452 745.433 735.769 608.414 754.263 611.414C763.05 612.834 767.099 621.486 768.928 630.167C771.187 641.405 769.887 653.067 765.209 663.531C755.662 685.444 730.001 727.08 668.452 745.433Z" fill="#6C63FF"/>
<path d="M753.713 637.418C753.713 637.418 683.057 739.932 669.402 744.433" stroke="#565987" stroke-miterlimit="10"/>
<path d="M760.211 653.42H743.717" stroke="#565987" stroke-miterlimit="10"/>
<path d="M740.458 690.925L714.606 692.035" stroke="#565987" stroke-miterlimit="10"/>
<path d="M724.723 660.921L727.533 674.393" stroke="#565987" stroke-miterlimit="10"/>
<path d="M697.232 701.927L697.732 714.168" stroke="#565987" stroke-miterlimit="10"/>
<path d="M670.452 745.433C670.452 745.433 603.134 608.414 584.641 611.414C575.854 612.834 571.805 621.486 569.976 630.167C567.686 641.394 568.95 653.057 573.595 663.531C583.141 685.444 608.803 727.08 670.452 745.433Z" fill="#6C63FF"/>
<path d="M585.091 637.418C585.091 637.418 655.747 739.932 669.402 744.433" stroke="#565987" stroke-miterlimit="10"/>
<path d="M578.583 653.42H595.077" stroke="#565987" stroke-miterlimit="10"/>
<path d="M598.346 690.925L624.197 692.035" stroke="#565987" stroke-miterlimit="10"/>
<path d="M614.072 660.921L611.271 674.393" stroke="#565987" stroke-miterlimit="10"/>
<path d="M641.562 701.927L641.062 714.168" stroke="#565987" stroke-miterlimit="10"/>
<path d="M785.992 777.427C787.83 775.936 789.169 773.919 789.831 771.646C790.321 769.346 789.341 766.596 787.152 765.755C784.693 764.815 782.063 766.516 780.074 768.236C778.085 769.956 775.796 771.926 773.187 771.556C774.527 770.34 775.528 768.796 776.094 767.077C776.66 765.357 776.771 763.52 776.415 761.745C776.308 761.007 775.996 760.314 775.516 759.745C774.156 758.284 771.677 758.914 770.038 760.065C764.839 763.725 763.39 770.786 763.37 777.147C762.84 774.847 763.28 772.456 763.27 770.146C763.26 767.836 762.61 765.145 760.631 763.925C759.408 763.248 758.029 762.903 756.632 762.925C754.293 762.845 751.694 763.075 750.094 764.785C748.095 766.906 748.625 770.476 750.354 772.786C752.084 775.097 754.703 776.587 757.112 778.207C759.055 779.355 760.71 780.932 761.95 782.818C762.098 783.078 762.218 783.353 762.31 783.638H776.955C780.233 781.984 783.273 779.895 785.992 777.427Z" fill="#6C63FF"/>
<path d="M529.499 722.249C531.335 720.754 532.67 718.734 533.328 716.459C533.828 714.158 532.848 711.458 530.649 710.568C528.19 709.628 525.571 711.328 523.571 713.058C521.572 714.788 519.293 716.739 516.694 716.379C518.033 715.155 519.032 713.606 519.594 711.881C520.157 710.156 520.263 708.315 519.903 706.537C519.791 705.801 519.48 705.109 519.003 704.537C517.633 703.077 515.164 703.697 513.525 704.847C508.327 708.508 506.877 715.568 506.847 721.929C506.327 719.639 506.767 717.249 506.757 714.928C506.747 712.608 506.097 709.928 504.108 708.698C502.881 708.037 501.502 707.713 500.109 707.757C497.78 707.667 495.171 707.897 493.582 709.608C491.582 711.738 492.112 715.298 493.831 717.609C495.551 719.919 498.18 721.409 500.599 723.029C502.534 724.184 504.185 725.76 505.428 727.64C505.577 727.903 505.698 728.181 505.787 728.47H520.442C523.726 726.812 526.772 724.719 529.499 722.249Z" fill="#6C63FF"/>
<path d="M614.961 777.427C616.798 775.936 618.138 773.919 618.799 771.646C619.289 769.346 618.31 766.596 616.12 765.755C613.661 764.815 611.032 766.516 609.043 768.236C607.053 769.956 604.764 771.926 602.155 771.556C603.497 770.341 604.501 768.798 605.068 767.078C605.636 765.358 605.748 763.521 605.394 761.745C605.286 761.007 604.975 760.314 604.494 759.745C603.135 758.284 600.655 758.914 599.016 760.065C593.818 763.725 592.368 770.786 592.348 777.147C591.819 774.847 592.258 772.456 592.248 770.146C592.238 767.836 591.589 765.145 589.609 763.925C588.387 763.248 587.008 762.903 585.611 762.925C583.271 762.845 580.672 763.075 579.073 764.785C577.074 766.906 577.603 770.476 579.333 772.786C581.062 775.097 583.681 776.587 586.09 778.207C588.033 779.355 589.688 780.932 590.929 782.818C591.076 783.078 591.197 783.353 591.289 783.638H605.934C609.208 781.984 612.245 779.894 614.961 777.427Z" fill="#6C63FF"/>
<path d="M857.388 665.882C857.388 665.882 862.886 673.063 854.859 683.884C846.831 694.706 840.214 703.887 842.863 710.648C842.863 710.648 854.979 690.505 864.855 690.225C874.732 689.945 868.274 677.993 857.388 665.882Z" fill="#6C63FF"/>
<path opacity="0.1" d="M857.388 665.882C857.869 666.573 858.246 667.331 858.507 668.132C868.134 679.434 873.252 689.985 864.005 690.255C855.398 690.495 845.072 705.907 842.593 709.798C842.674 710.096 842.771 710.39 842.883 710.678C842.883 710.678 854.999 690.535 864.875 690.255C874.752 689.975 868.274 677.993 857.388 665.882Z" fill="black"/>
<path d="M867.635 675.033C867.635 677.563 867.355 679.613 867.005 679.613C866.655 679.613 866.385 677.533 866.385 675.033C866.385 672.533 866.735 673.703 867.085 673.703C867.435 673.703 867.635 672.533 867.635 675.033Z" fill="#FFD037"/>
<path d="M871.143 678.053C868.924 679.263 866.985 679.993 866.825 679.693C866.665 679.393 868.314 678.153 870.533 676.943C872.753 675.733 871.883 676.613 872.043 676.943C872.203 677.273 873.382 676.843 871.143 678.053Z" fill="#FFD037"/>
<path d="M828.398 665.882C828.398 665.882 822.899 673.063 830.927 683.884C838.954 694.706 845.572 703.887 842.923 710.648C842.923 710.648 830.817 690.505 820.93 690.225C811.044 689.945 817.581 677.993 828.398 665.882Z" fill="#6C63FF"/>
<path opacity="0.1" d="M828.398 665.882C827.916 666.574 827.535 667.332 827.268 668.132C817.652 679.434 812.533 689.985 821.77 690.255C830.387 690.495 840.764 705.907 843.193 709.798C843.112 710.097 843.012 710.391 842.893 710.678C842.893 710.678 830.787 690.535 820.9 690.255C811.014 689.975 817.582 677.993 828.398 665.882Z" fill="black"/>
<path d="M818.211 675.033C818.211 677.563 818.501 679.613 818.851 679.613C819.201 679.613 819.481 677.563 819.481 675.033C819.481 672.503 819.131 673.703 818.781 673.703C818.431 673.703 818.211 672.533 818.211 675.033Z" fill="#FFD037"/>
<path d="M814.712 678.053C816.931 679.263 818.861 679.993 819.031 679.693C819.201 679.393 817.541 678.153 815.322 676.943C813.103 675.733 813.972 676.613 813.803 676.943C813.633 677.273 812.493 676.843 814.712 678.053Z" fill="#FFD037"/>
<path d="M819.96 709.738C819.96 709.738 835.315 709.268 839.954 705.967C844.592 702.667 863.576 698.736 864.725 704.027C865.875 709.318 887.797 730.321 870.463 730.461C853.129 730.601 830.187 727.76 825.569 724.94C820.95 722.119 819.96 709.738 819.96 709.738Z" fill="#A8A8A8"/>
<path opacity="0.2" d="M870.763 728.62C853.429 728.76 830.477 725.92 825.858 723.1C822.35 720.959 820.94 713.268 820.48 709.718H819.96C819.96 709.718 820.96 722.109 825.559 724.92C830.157 727.73 853.119 730.581 870.453 730.441C875.452 730.441 877.181 728.62 877.091 725.98C876.381 727.59 874.482 728.59 870.763 728.62Z" fill="black"/>
</g>
<defs>
<linearGradient id="paint0_linear_310_161" x1="368.095" y1="782.258" x2="368.095" y2="96.9834" gradientUnits="userSpaceOnUse">
<stop stop-color="#808080" stop-opacity="0.25"/>
<stop offset="0.54" stop-color="#808080" stop-opacity="0.12"/>
<stop offset="1" stop-color="#808080" stop-opacity="0.1"/>
</linearGradient>
<clipPath id="clip0_310_161">
<rect width="1027" height="799" fill="white"/>
</clipPath>
</defs>
</svg>
