<svg width="1027" height="799" viewBox="0 0 1027 799" fill="none" xmlns="http://www.w3.org/2000/svg">
<g clip-path="url(#clip0_310_110)">
<path d="M916.137 702.286L933.033 702.731C937.76 695.218 940.582 686.665 941.254 677.814C930.427 689.294 911.33 686.41 897.347 693.722C893.004 696.036 889.236 699.297 886.325 703.265C883.413 707.233 881.431 711.805 880.527 716.643L873.561 726.398C881.262 728.35 889.295 728.61 897.106 727.158C904.918 725.707 912.322 722.579 918.808 717.991C922.421 715.381 925.691 712.326 928.541 708.899C922.275 706 916.137 702.286 916.137 702.286Z" fill="#F2F2F2"/>
<path d="M906.83 676.561L922.15 669.424C923.031 660.592 921.742 651.678 918.396 643.456C913.826 658.559 895.447 664.495 886.193 677.276C883.337 681.284 881.42 685.884 880.583 690.734C879.747 695.584 880.012 700.56 881.36 705.293L879.476 717.131C887.239 715.443 894.545 712.093 900.889 707.31C907.233 702.527 912.465 696.426 916.224 689.427C918.294 685.479 919.859 681.287 920.881 676.948C913.979 677.148 906.83 676.561 906.83 676.561Z" fill="#F2F2F2"/>
<path d="M881.686 717.628H871.322L866.393 677.656H881.687L881.686 717.628Z" fill="#A0616A"/>
<path d="M881.409 714.241L870.352 709.75L870.026 709.616L863.92 714.241C860.569 714.241 857.348 715.534 854.928 717.851C852.508 720.169 851.076 723.331 850.931 726.679C850.914 726.863 850.914 727.055 850.914 727.247V727.674H884.328V714.241L881.409 714.241Z" fill="#2F2E41"/>
<path d="M861.951 696.956L853.019 702.212L828.498 670.262L841.68 662.506L861.951 696.956Z" fill="#A0616A"/>
<path d="M868.119 702.222L866.906 700.156L862.515 692.695L860.232 694.042L859.997 694.176L848.187 695.916L847.836 695.966L844.925 703.05C843.453 703.916 842.165 705.064 841.136 706.427C840.107 707.791 839.357 709.344 838.928 710.997C838.499 712.651 838.4 714.373 838.637 716.065C838.874 717.756 839.442 719.385 840.308 720.857L840.526 721.217L869.323 704.271L868.119 702.222Z" fill="#2F2E41"/>
<path d="M894.81 473.265C899.669 487.918 899.155 503.824 893.642 520.896L892.204 579.582L887.582 616.6C890.369 623.853 891.799 631.557 891.8 639.328C891.78 659.696 890.411 688.632 883.467 702.225H867.035L863.326 641.692L858.9 611.257L858.354 578.643L857.878 550.198L840.012 576.324L822.651 601.711L839.907 630.819L854.962 677.657L839.071 691.039L821.043 656.861L812.306 646.71L788.455 595.079L790.599 587.89C795.013 573.085 801.424 558.951 809.654 545.877L833.378 490.817L894.81 473.265Z" fill="#2F2E41"/>
<path d="M621.13 484.214H295.06C292.459 484.211 289.964 483.176 288.124 481.337C286.284 479.497 285.25 477.002 285.247 474.401V225.152C285.25 222.55 286.284 220.056 288.124 218.216C289.964 216.376 292.459 215.341 295.06 215.339H621.13C623.732 215.341 626.227 216.376 628.066 218.216C629.906 220.056 630.941 222.55 630.944 225.152V474.401C630.941 477.002 629.906 479.497 628.066 481.337C626.227 483.176 623.732 484.211 621.13 484.214Z" fill="white"/>
<path d="M621.13 485.431H295.06C292.136 485.428 289.332 484.264 287.264 482.196C285.196 480.129 284.033 477.325 284.03 474.401V225.152C284.033 222.227 285.196 219.424 287.264 217.356C289.332 215.288 292.136 214.125 295.06 214.122H621.13C624.054 214.125 626.858 215.288 628.926 217.356C630.993 219.424 632.157 222.227 632.16 225.152V474.401C632.157 477.325 630.994 480.129 628.926 482.197C626.858 484.264 624.054 485.428 621.13 485.431ZM295.06 216.555C292.781 216.558 290.596 217.464 288.984 219.076C287.372 220.687 286.466 222.873 286.463 225.152V474.401C286.466 476.68 287.372 478.865 288.984 480.477C290.596 482.089 292.781 482.995 295.06 482.998H621.13C623.409 482.995 625.594 482.089 627.206 480.477C628.818 478.865 629.724 476.68 629.727 474.401V225.152C629.724 222.873 628.818 220.687 627.206 219.076C625.594 217.464 623.409 216.558 621.13 216.555H295.06Z" fill="#F0F0F0"/>
<path d="M285.999 436.766V474.401C286.003 476.803 286.958 479.105 288.657 480.804C290.355 482.502 292.658 483.458 295.059 483.461H621.13C623.532 483.458 625.834 482.502 627.533 480.804C629.231 479.105 630.187 476.803 630.19 474.401V436.766H285.999Z" fill="#F0F0F0"/>
<path d="M289.072 216.926L287.761 218.975L629.535 437.79L630.847 435.741L289.072 216.926Z" fill="#F0F0F0"/>
<path d="M848.565 112.482H79.2602C78.9373 112.475 78.63 112.342 78.4041 112.111C78.1782 111.88 78.0518 111.57 78.0518 111.247C78.0518 110.924 78.1782 110.614 78.4041 110.383C78.63 110.152 78.9373 110.019 79.2602 110.012H848.565C848.888 110.019 849.196 110.152 849.422 110.383C849.647 110.614 849.774 110.924 849.774 111.247C849.774 111.57 849.647 111.88 849.422 112.111C849.196 112.342 848.888 112.475 848.565 112.482Z" fill="#CACACA"/>
<path d="M106.459 95.1882C113.8 95.1882 119.751 89.1044 119.751 81.5998C119.751 74.0952 113.8 68.0115 106.459 68.0115C99.1176 68.0115 93.1665 74.0952 93.1665 81.5998C93.1665 89.1044 99.1176 95.1882 106.459 95.1882Z" fill="#3F3D56"/>
<path d="M152.377 95.1882C159.718 95.1882 165.669 89.1044 165.669 81.5998C165.669 74.0952 159.718 68.0115 152.377 68.0115C145.036 68.0115 139.084 74.0952 139.084 81.5998C139.084 89.1044 145.036 95.1882 152.377 95.1882Z" fill="#3F3D56"/>
<path d="M198.295 95.1882C205.636 95.1882 211.587 89.1044 211.587 81.5998C211.587 74.0952 205.636 68.0115 198.295 68.0115C190.954 68.0115 185.003 74.0952 185.003 81.5998C185.003 89.1044 190.954 95.1882 198.295 95.1882Z" fill="#3F3D56"/>
<path d="M821.049 71.3795H788.431C787.785 71.3924 787.169 71.6582 786.717 72.12C786.264 72.5817 786.01 73.2026 786.01 73.8493C786.01 74.4959 786.264 75.1168 786.717 75.5786C787.169 76.0404 787.785 76.3062 788.431 76.319H821.049C821.696 76.3062 822.312 76.0404 822.764 75.5786C823.217 75.1168 823.471 74.4959 823.471 73.8493C823.471 73.2026 823.217 72.5817 822.764 72.12C822.312 71.6582 821.696 71.3924 821.049 71.3795Z" fill="#3F3D56"/>
<path d="M821.049 80.6503H788.431C787.785 80.6631 787.169 80.929 786.717 81.3907C786.264 81.8525 786.01 82.4734 786.01 83.12C786.01 83.7667 786.264 84.3876 786.717 84.8493C787.169 85.3111 787.785 85.577 788.431 85.5898H821.049C821.696 85.577 822.312 85.3111 822.764 84.8493C823.217 84.3876 823.471 83.7667 823.471 83.12C823.471 82.4734 823.217 81.8525 822.764 81.3907C822.312 80.929 821.696 80.6631 821.049 80.6503Z" fill="#3F3D56"/>
<path d="M821.049 89.9088H788.431C787.785 89.9216 787.169 90.1875 786.717 90.6493C786.264 91.111 786.01 91.7319 786.01 92.3786C786.01 93.0252 786.264 93.6461 786.717 94.1079C787.169 94.5697 787.785 94.8355 788.431 94.8483H821.049C821.696 94.8355 822.312 94.5697 822.764 94.1079C823.217 93.6461 823.471 93.0252 823.471 92.3786C823.471 91.7319 823.217 91.111 822.764 90.6493C822.312 90.1875 821.696 89.9216 821.049 89.9088Z" fill="#3F3D56"/>
<path d="M731.65 402.934C732.362 403.871 733.271 404.641 734.313 405.188C735.355 405.736 736.504 406.049 737.68 406.104C738.856 406.159 740.029 405.956 741.118 405.509C742.207 405.062 743.184 404.382 743.982 403.516L770.219 414.927L767.663 400.28L743.14 391.69C741.597 390.446 739.651 389.813 737.671 389.908C735.692 390.004 733.817 390.822 732.4 392.208C730.984 393.595 730.125 395.452 729.987 397.429C729.849 399.406 730.44 401.365 731.65 402.934Z" fill="#A0616A"/>
<path d="M755.522 394.66L805.643 401.156L857.332 370.019C860.096 368.354 863.182 367.293 866.386 366.907C869.59 366.52 872.839 366.816 875.92 367.776C879.001 368.736 881.844 370.337 884.261 372.475C886.679 374.612 888.616 377.238 889.946 380.178C892.345 385.5 892.619 391.538 890.711 397.055C888.804 402.572 884.86 407.151 879.686 409.855L810.229 434.606L810.099 434.653L749.158 407.507L755.522 394.66Z" fill="#3F3D56"/>
<path d="M828.718 482.125L832.884 471.709L830.129 462.754L838.293 373.501L839.499 359.974L839.58 349.89L867.497 349.209L870.525 356.898L876.515 360.48C883.047 364.397 888.432 369.966 892.128 376.625C895.825 383.284 897.702 390.8 897.572 398.415L896.49 456.96L899.275 462.533C900.032 464.046 900.453 465.705 900.508 467.396C900.563 469.086 900.252 470.769 899.596 472.328C898.939 473.888 897.953 475.286 896.705 476.429C895.457 477.571 893.976 478.429 892.365 478.945L830.993 497.597L828.718 482.125Z" fill="#3F3D56"/>
<path d="M850.982 339.649C864.991 339.649 876.347 328.293 876.347 314.284C876.347 300.275 864.991 288.919 850.982 288.919C836.973 288.919 825.617 300.275 825.617 314.284C825.617 328.293 836.973 339.649 850.982 339.649Z" fill="#A0616A"/>
<path d="M877.395 319.814C878.152 316.626 877.805 312.141 877.377 308.932C876.83 304.7 875.399 300.631 873.178 296.988C870.957 293.344 867.996 290.208 864.485 287.783C863.139 286.76 861.54 286.125 859.859 285.944C859.02 285.873 858.179 286.07 857.458 286.507C856.736 286.943 856.172 287.596 855.844 288.373C855.421 287.317 854.786 286.359 853.979 285.558C853.171 284.757 852.208 284.13 851.148 283.716C849.02 282.901 846.732 282.592 844.464 282.816C840.068 283.178 835.852 284.724 832.264 287.289C828.675 289.854 825.848 293.342 824.083 297.384C823.405 298.994 821.513 293.049 820.654 294.57C819.866 296.15 818.489 297.359 816.82 297.938C815.138 298.408 814.455 305.338 813.793 303.722C813.28 304.916 813.077 306.221 813.203 307.515C813.33 308.808 813.781 310.049 814.517 311.121C815.252 312.193 816.246 313.062 817.407 313.646C818.569 314.231 819.859 314.512 821.158 314.463C822.856 314.244 824.539 313.921 826.198 313.498C829.245 313.114 832.327 313.859 834.862 315.592C837.397 317.325 839.209 319.926 839.958 322.904C840.421 321.172 841.16 319.526 842.148 318.031C842.649 317.287 843.321 316.673 844.108 316.241C844.894 315.809 845.772 315.571 846.669 315.547C847.526 315.645 848.354 315.918 849.103 316.348C849.851 316.778 850.503 317.356 851.02 318.047C852.136 319.359 852.975 320.888 854.1 322.192C857.401 326.019 861.865 334.943 866.569 334.292C870.281 333.779 876.362 324.165 877.395 319.814Z" fill="#2F2E41"/>
<path d="M925.486 528.132C926.142 527.154 926.574 526.044 926.754 524.881C926.934 523.718 926.857 522.529 926.528 521.399C926.199 520.269 925.626 519.225 924.85 518.34C924.074 517.456 923.113 516.752 922.035 516.279L924.316 487.758L911.291 494.928L911.122 520.912C910.447 522.775 910.479 524.821 911.211 526.663C911.944 528.504 913.327 530.012 915.097 530.902C916.868 531.792 918.904 532.002 920.818 531.491C922.733 530.98 924.394 529.785 925.486 528.132Z" fill="#A0616A"/>
<path d="M909.914 508.236L899.795 458.718L853.572 419.929C851.1 417.855 849.095 415.28 847.69 412.375C846.285 409.47 845.511 406.3 845.419 403.074C845.327 399.849 845.919 396.64 847.157 393.66C848.394 390.68 850.249 387.995 852.599 385.783C856.855 381.787 862.477 379.569 868.314 379.583C874.152 379.598 879.763 381.843 883.999 385.859L929.948 443.527L930.034 443.635L924.131 510.086L909.914 508.236Z" fill="#3F3D56"/>
<path d="M1025.55 730.584H602.174C601.983 730.584 601.794 730.547 601.618 730.475C601.442 730.402 601.281 730.295 601.146 730.161C601.012 730.026 600.904 729.866 600.831 729.69C600.758 729.514 600.721 729.326 600.721 729.135C600.721 728.944 600.758 728.756 600.831 728.58C600.904 728.404 601.012 728.244 601.146 728.109C601.281 727.975 601.442 727.868 601.618 727.795C601.794 727.723 601.983 727.686 602.174 727.686H1025.55C1025.74 727.686 1025.93 727.723 1026.1 727.795C1026.28 727.868 1026.44 727.975 1026.57 728.109C1026.71 728.244 1026.82 728.404 1026.89 728.58C1026.96 728.756 1027 728.944 1027 729.135C1027 729.326 1026.96 729.514 1026.89 729.69C1026.82 729.866 1026.71 730.026 1026.57 730.161C1026.44 730.295 1026.28 730.402 1026.1 730.475C1025.93 730.547 1025.74 730.584 1025.55 730.584Z" fill="#CCCCCC"/>
<path d="M751.936 494.991H559.539C558.198 494.99 556.912 494.456 555.964 493.508C555.016 492.56 554.483 491.275 554.481 489.934V411.867C554.483 410.526 555.016 409.241 555.964 408.293C556.912 407.345 558.198 406.812 559.539 406.81H751.936C753.277 406.812 754.563 407.345 755.511 408.293C756.459 409.241 756.992 410.526 756.994 411.867V489.934C756.992 491.275 756.459 492.56 755.511 493.508C754.563 494.456 753.277 494.99 751.936 494.991Z" fill="#6C63FF"/>
<path d="M733.617 532.44H577.858C577.061 532.441 576.271 532.285 575.533 531.981C574.796 531.676 574.126 531.229 573.562 530.666C572.997 530.102 572.55 529.433 572.244 528.696C571.939 527.959 571.781 527.169 571.781 526.372C571.781 525.574 571.939 524.784 572.244 524.047C572.55 523.31 572.997 522.641 573.562 522.077C574.126 521.514 574.796 521.067 575.533 520.763C576.271 520.458 577.061 520.302 577.858 520.303H733.617C741.443 520.194 741.521 532.55 733.617 532.44Z" fill="#E4E4E4"/>
<path d="M733.616 560.254H577.858C576.249 560.254 574.705 559.615 573.567 558.477C572.429 557.339 571.79 555.795 571.79 554.186C571.79 552.576 572.429 551.033 573.567 549.895C574.705 548.756 576.249 548.117 577.858 548.117H733.616C741.442 548.008 741.521 560.364 733.616 560.254Z" fill="#E4E4E4"/>
<path d="M733.617 588.068H577.858C577.061 588.069 576.271 587.913 575.533 587.609C574.796 587.304 574.126 586.857 573.562 586.294C572.997 585.73 572.55 585.061 572.244 584.324C571.939 583.587 571.781 582.797 571.781 582C571.781 581.202 571.939 580.412 572.244 579.675C572.55 578.939 572.997 578.269 573.562 577.706C574.126 577.142 574.796 576.695 575.533 576.391C576.271 576.086 577.061 575.93 577.858 575.931H733.617C741.443 575.822 741.521 588.178 733.617 588.068Z" fill="#E4E4E4"/>
<path d="M253.677 633.004L269.787 627.894C271.795 619.248 271.662 610.242 269.399 601.659C262.927 616.05 243.938 619.576 233.119 631.062C229.772 634.671 227.28 638.986 225.828 643.688C224.375 648.391 223.999 653.36 224.728 658.227L221.339 669.725C229.255 669.049 236.93 666.664 243.836 662.736C250.742 658.807 256.714 653.429 261.341 646.97C263.901 643.321 265.991 639.364 267.562 635.193C260.692 634.505 253.677 633.004 253.677 633.004Z" fill="#F2F2F2"/>
<path d="M236.463 611.743L248.603 599.985C246.544 591.35 242.408 583.349 236.555 576.676C237.18 592.443 221.757 604.068 217.196 619.174C215.81 623.896 215.504 628.87 216.301 633.726C217.098 638.583 218.978 643.198 221.801 647.229L223.895 659.032C230.679 654.896 236.485 649.339 240.914 642.743C245.343 636.147 248.29 628.669 249.551 620.825C250.214 616.417 250.321 611.944 249.866 607.509C243.41 609.958 236.463 611.743 236.463 611.743Z" fill="#F2F2F2"/>
<path d="M268.919 392.812C267.592 392.99 266.243 392.875 264.966 392.475C263.69 392.075 262.516 391.399 261.528 390.497C260.541 389.594 259.763 388.486 259.25 387.25C258.737 386.014 258.501 384.681 258.559 383.344L200.043 323.972L216.378 312.599L268.761 374.537C271 374.783 273.071 375.842 274.582 377.513C276.092 379.184 276.938 381.352 276.957 383.604C276.976 385.857 276.169 388.038 274.687 389.736C273.206 391.433 271.153 392.527 268.919 392.812Z" fill="#FFB6B6"/>
<path d="M182.042 298.29C182.042 298.29 177.894 300.776 184.797 308.345C190.323 314.405 214.438 343.541 224.063 349.624C223.013 352.655 249.639 381.673 252.438 383.523L267.237 365.055C266.392 359.76 237.272 334.481 235.267 335.124L225.982 323.583L204.945 288.296L185.007 296.44L182.042 298.29Z" fill="#6C63FF"/>
<path d="M135.83 652.058H146.862L152.111 609.508H135.829L135.83 652.058Z" fill="#FFB6B6"/>
<path d="M132.229 644.503L149.853 643.451V651.002L166.609 662.574C167.437 663.146 168.06 663.967 168.388 664.917C168.716 665.868 168.732 666.899 168.432 667.859C168.133 668.819 167.535 669.659 166.725 670.255C165.914 670.851 164.935 671.172 163.929 671.172H142.946L139.33 663.703L137.918 671.172H130.006L132.229 644.503Z" fill="#2F2E41"/>
<path d="M197.796 652.058H208.828L214.077 609.508H197.796V652.058Z" fill="#FFB6B6"/>
<path d="M194.195 644.503L211.82 643.451V651.002L228.576 662.574C229.404 663.146 230.027 663.967 230.355 664.917C230.683 665.868 230.699 666.899 230.399 667.859C230.1 668.819 229.501 669.659 228.691 670.255C227.881 670.851 226.902 671.172 225.896 671.172H204.913L201.297 663.703L199.884 671.172H191.973L194.195 644.503Z" fill="#2F2E41"/>
<path d="M131.07 615.364H131.19L133.311 546.178C131.938 543.53 131.241 540.583 131.283 537.6C131.324 534.617 132.103 531.691 133.549 529.082L133.852 528.532L133.065 524.881C132.053 520.191 132.517 515.302 134.394 510.886L136.373 446.348C129.302 400.522 163 370.635 163 370.635L156.842 344.73L217.81 338.733L213.482 370.635L224.319 407.871C231.484 477.674 230.184 545.695 218.815 611.596L219.125 611.753C220.241 612.138 220.719 613.684 220.194 615.206C219.669 616.728 218.338 617.65 217.222 617.265L190.562 616.337C189.446 615.952 188.967 614.406 189.493 612.884C190.018 611.362 191.349 610.44 192.465 610.826L194.278 611.742L190.412 544.98L190.841 532.786L189.957 518.951L185.87 456.724L170.402 533.246L154.603 616.134C155.039 616.529 155.344 617.046 155.48 617.618C155.616 618.19 155.575 618.79 155.362 619.338C155.15 619.887 154.776 620.357 154.291 620.689C153.805 621.021 153.231 621.197 152.643 621.195H131.07C130.297 621.194 129.557 620.886 129.012 620.339C128.467 619.793 128.16 619.052 128.16 618.28C128.16 617.508 128.467 616.767 129.012 616.22C129.557 615.674 130.297 615.366 131.07 615.364Z" fill="#2F2E41"/>
<path d="M205.935 279.559L193.945 272.365L169.966 269.967L148.771 280.76L148.983 313.73L162.429 347.926L214.811 358.722L220.922 328.67C220.922 328.67 236.509 307.735 219.723 295.745L205.935 279.559Z" fill="#6C63FF"/>
<path d="M154.612 421.913C153.473 421.212 152.501 420.269 151.766 419.151C151.03 418.033 150.549 416.768 150.355 415.444C150.162 414.12 150.261 412.769 150.646 411.488C151.03 410.206 151.692 409.025 152.582 408.026L144.851 325.024L164.696 326.557L166.056 407.663C167.634 409.271 168.567 411.402 168.679 413.652C168.791 415.902 168.074 418.115 166.663 419.871C165.252 421.628 163.247 422.806 161.025 423.182C158.804 423.558 156.522 423.107 154.612 421.913Z" fill="#FFB6B6"/>
<path d="M149.506 281.091C149.506 281.091 144.722 280.391 145.276 290.62C145.72 298.809 143.611 349.285 147.214 360.086C144.483 361.769 144.338 402.851 145.334 406.055L168.481 401.122C171.177 396.487 169.402 354.013 167.442 353.242L167.557 338.429L172.673 289.605L152.973 281.535L149.506 281.091Z" fill="#6C63FF"/>
<path d="M267.802 429.593C267.183 428.837 266.739 427.952 266.504 427.003C266.269 426.053 266.248 425.064 266.444 424.105C268.733 412.713 268.733 400.978 266.444 389.585C266.248 388.627 266.269 387.637 266.504 386.688C266.739 385.739 267.183 384.854 267.802 384.098C268.397 383.37 269.143 382.782 269.989 382.374C270.835 381.966 271.76 381.749 272.699 381.736C282.783 377.718 292.439 377.717 301.406 381.737C302.954 381.764 304.442 382.342 305.603 383.368C306.764 384.393 307.52 385.799 307.738 387.332C309.498 400.282 309.498 413.409 307.738 426.359C307.518 427.911 306.745 429.331 305.562 430.359C304.379 431.387 302.864 431.954 301.297 431.955H272.797C271.841 431.957 270.897 431.746 270.033 431.338C269.169 430.929 268.407 430.333 267.802 429.593Z" fill="#6C63FF"/>
<path d="M275.782 396.615H299.769C300.166 396.614 300.546 396.456 300.826 396.175C301.107 395.894 301.264 395.513 301.264 395.116C301.264 394.719 301.107 394.338 300.826 394.057C300.546 393.776 300.166 393.618 299.769 393.617H275.782C275.384 393.617 275.003 393.775 274.722 394.056C274.441 394.337 274.283 394.718 274.283 395.116C274.283 395.514 274.441 395.895 274.722 396.176C275.003 396.457 275.384 396.615 275.782 396.615Z" fill="white"/>
<path d="M275.782 408.609H299.769C300.166 408.608 300.546 408.449 300.826 408.168C301.106 407.887 301.264 407.507 301.264 407.11C301.264 406.713 301.106 406.332 300.826 406.051C300.546 405.77 300.166 405.612 299.769 405.61H275.782C275.385 405.612 275.004 405.77 274.724 406.051C274.444 406.332 274.287 406.713 274.287 407.11C274.287 407.507 274.444 407.887 274.724 408.168C275.004 408.449 275.385 408.608 275.782 408.609Z" fill="white"/>
<path d="M275.782 420.602H299.769C300.167 420.602 300.548 420.444 300.829 420.163C301.11 419.882 301.268 419.501 301.268 419.103C301.268 418.706 301.11 418.324 300.829 418.043C300.548 417.762 300.167 417.604 299.769 417.604H275.782C275.384 417.604 275.003 417.762 274.722 418.043C274.441 418.324 274.283 418.706 274.283 419.103C274.283 419.501 274.441 419.882 274.722 420.163C275.003 420.444 275.384 420.602 275.782 420.602Z" fill="white"/>
<path d="M343.43 670.737C343.431 670.928 343.394 671.116 343.321 671.292C343.248 671.468 343.142 671.628 343.007 671.763C342.873 671.897 342.713 672.004 342.537 672.076C342.361 672.149 342.172 672.186 341.982 672.185H0.97221C0.588231 672.185 0.219975 672.033 -0.0515393 671.761C-0.323053 671.49 -0.475586 671.121 -0.475586 670.737C-0.475586 670.353 -0.323053 669.985 -0.0515393 669.714C0.219975 669.442 0.588231 669.29 0.97221 669.29H341.982C342.172 669.289 342.361 669.326 342.537 669.399C342.713 669.471 342.873 669.578 343.007 669.712C343.142 669.847 343.248 670.007 343.321 670.183C343.394 670.359 343.431 670.547 343.43 670.737Z" fill="#CCCCCC"/>
<path d="M204.43 257.71V235.371C204.435 231.439 203.665 227.544 202.164 223.909C200.663 220.274 198.461 216.97 195.683 214.187C192.905 211.404 189.606 209.195 185.974 207.687C182.342 206.179 178.448 205.402 174.515 205.399C170.583 205.397 166.688 206.169 163.054 207.672C159.42 209.175 156.118 211.38 153.337 214.16C150.555 216.94 148.348 220.24 146.843 223.873C145.337 227.506 144.562 231.4 144.562 235.333V235.371C139.287 246.365 142.587 251.592 144.562 257.71C144.564 258.776 144.988 259.797 145.742 260.55C146.495 261.304 147.516 261.728 148.582 261.73H200.409C201.475 261.728 202.496 261.305 203.25 260.551C204.004 259.798 204.428 258.776 204.43 257.71Z" fill="#2F2E41"/>
<path d="M184.31 260.278C196.685 260.278 206.717 250.246 206.717 237.871C206.717 225.496 196.685 215.465 184.31 215.465C171.936 215.465 161.904 225.496 161.904 237.871C161.904 250.246 171.936 260.278 184.31 260.278Z" fill="#FFB7B7"/>
<path d="M160.861 243.745C161.064 243.713 161.267 243.67 161.471 243.638C164.966 243.018 168.461 242.409 171.945 241.779L172.266 233.88L176.488 240.955C186.118 244.151 195.128 242.345 203.604 238.358C206.4 237.031 209.112 235.536 211.727 233.88C211.015 229.511 209.336 225.357 206.811 221.722C204.287 218.086 200.982 215.06 197.138 212.867C196.817 212.685 196.507 212.525 196.186 212.364L196.182 212.363L196.179 212.361L196.176 212.358L196.176 212.353C195.631 212.097 195.075 211.851 194.519 211.627C190.168 209.926 185.423 209.496 180.837 210.385C176.25 211.274 172.011 213.447 168.61 216.65C161.77 223.181 158.692 233.965 160.861 243.745Z" fill="#2F2E41"/>
</g>
<defs>
<clipPath id="clip0_310_110">
<rect width="1027" height="799" fill="white"/>
</clipPath>
</defs>
</svg>
