<svg width="179" height="40" viewBox="0 0 179 40" fill="none" xmlns="http://www.w3.org/2000/svg">
<path fill-rule="evenodd" clip-rule="evenodd" d="M68.6399 11.7928C72.4446 11.7968 74.3736 11.8688 75.9795 12.4336C80.0282 13.8473 80.5973 16.7483 80.5973 18.7293C80.5973 21.1633 79.7182 23.7465 76.4072 24.7041L81.2732 33.103H84.2303V36.5833C83.0577 36.6534 82.317 36.7205 81.5372 36.7757C80.7588 36.8388 80.1357 36.8712 79.6697 36.8712C78.7129 36.8712 77.9973 36.7273 77.5243 36.4341C77.0446 36.1497 76.618 35.6513 76.2466 34.9319L71.136 25.5679H68.3628V31.0762H63.0449V15.5711H60.7888V11.7926L68.6399 11.7928ZM20.2413 11.7058C21.4389 11.7058 22.253 11.9354 22.6884 12.3919C23.1234 12.8521 23.3281 13.6052 23.3281 14.6531V27.2214H25.6988V30.6391C25.6988 30.6391 22.8223 31.0367 21.1103 31.0367C20.189 31.0367 19.5037 30.9021 19.043 30.6391C18.5853 30.3798 18.2785 29.96 18.1242 29.3845C17.2821 30.0131 15.1242 31.4397 12.4876 31.4397C10.7732 31.4397 8.91436 30.9471 7.52385 29.6198C6.99483 29.1103 6.10771 27.6988 6.10771 24.9386V15.5179H3.73608V12.061C4.47737 11.9527 5.29182 11.8707 6.18849 11.8028C7.0746 11.7348 7.79077 11.7058 8.32785 11.7058C9.52651 11.7058 10.3425 11.9354 10.7793 12.3919C11.2106 12.8521 11.4271 13.6052 11.4271 14.6531V24.1922C11.4271 25.0572 11.5776 25.7617 12.0393 26.1155C13.1961 27.0092 15.6043 26.6751 16.2293 26.607C16.8561 26.5443 17.4508 26.448 18.0107 26.3142V15.5179H15.647V12.061C16.3907 11.9527 17.2052 11.8707 18.0971 11.8028C18.9894 11.7348 19.7065 11.7058 20.2413 11.7058ZM54.5085 11.7058C55.7354 11.7058 56.5573 11.9354 56.9944 12.3919C57.4317 12.8521 57.6443 13.6062 57.6443 14.6531V31.0773H52.3263V15.5189H49.802V12.0967C50.1795 12.0449 50.5897 12.0012 51.0282 11.9588C51.0282 11.9588 53.4011 11.7058 54.5085 11.7058ZM40.6796 11.3117C45.0002 11.3117 46.4563 14.5863 46.4563 17.7998V27.2214H48.7748V30.6391C48.7748 30.6391 46.7278 30.8951 46.3234 30.9381C45.9158 30.9737 45.5179 31.0011 45.1395 31.0172C44.7917 31.0262 44.5123 31.0309 44.2732 31.0367H44.1833C44.1293 31.0367 44.0814 31.0289 44.0271 31.0289C43.9301 31.0262 43.8355 31.0254 43.7406 31.0172C43.3751 30.9991 43.0536 30.9529 42.7763 30.8835C42.7506 30.8788 42.7339 30.8732 42.712 30.8662C42.4869 30.8096 42.0531 30.6484 41.7865 30.3646C41.3482 29.8984 41.1404 29.1322 41.1404 28.0817V18.5459C41.1404 17.657 40.9336 17.0113 40.5234 16.6195C40.2691 16.384 39.9371 16.2188 39.5322 16.1485C37.1348 15.7268 35.016 16.2939 34.4793 16.4266V30.8744H29.1575V15.5179H26.5213V12.0959C27.2608 11.9663 29.7768 11.7058 31.3036 11.7058C32.2478 11.7058 32.9567 11.8363 33.4312 12.0959C33.9004 12.3588 34.225 12.7678 34.4014 13.3177C36.6347 11.449 39.5582 11.3117 40.6796 11.3117ZM71.2983 15.465H68.3628V21.9774H71.5071C74.2498 21.9774 75.289 20.1887 75.289 18.6588C75.289 17.1993 74.8682 15.465 71.2983 15.465ZM54.1643 2.49072C55.051 2.49072 55.7281 2.69017 56.1693 3.07984C56.5935 3.46518 56.8119 4.12702 56.8119 5.05406V5.57844C56.8119 6.50667 56.599 7.16048 56.1693 7.5319C55.7281 7.90866 55.0542 8.10147 54.1643 8.10147H53.8846C52.9763 8.10147 52.2922 7.91263 51.8685 7.53441C51.4498 7.16413 51.2347 6.50547 51.2347 5.57844V5.05406C51.2347 4.13158 51.4498 3.46518 51.8685 3.07984C52.3009 2.68886 52.9795 2.49072 53.8846 2.49072H54.1643Z" fill="white"/>
<path d="M89.5906 19.2673H94.3436V18.2847H90.7015V11.791H89.5906V19.2673ZM100.627 19.2673H101.78L98.8431 11.791H97.8177L94.8805 19.2673H96.0236L96.7389 17.3662H99.9112L100.627 19.2673ZM97.1129 16.3943L98.3304 13.1795L99.5479 16.3943H97.1129ZM108.441 19.3527C110.161 19.3527 111.314 18.3595 111.314 16.6506V11.791H110.246V16.6826C110.246 17.7507 109.52 18.3595 108.441 18.3595C107.373 18.3595 106.647 17.7507 106.647 16.6826V11.791H105.579V16.6506C105.579 18.3595 106.732 19.3527 108.441 19.3527ZM113.015 19.2673H114.126V13.5212L117.736 19.2673H118.965V11.791H117.854V17.5478L114.255 11.791H113.015V19.2673ZM120.804 19.2673H121.915V11.791H120.804V19.2673ZM125.857 19.2673H126.957L129.744 11.791H128.623L126.401 17.9323L124.191 11.791H123.069L125.857 19.2673ZM130.894 19.2673H135.808V18.2847H132.005V15.903H134.985V14.9204H132.005V12.7736H135.69V11.791H130.894V19.2673ZM141.567 15.7214C142.229 15.3903 142.667 14.8349 142.667 14.0339C142.667 12.6989 141.749 11.791 140.243 11.791H137.316V19.2673H138.427V16.3195H140.296C140.937 16.3195 141.375 16.7894 141.428 17.4516L141.578 19.2673H142.657L142.507 17.3555C142.464 16.6292 142.112 16.0418 141.567 15.7214ZM138.427 12.7523H140.211C141.183 12.7523 141.556 13.3504 141.556 14.0339C141.556 14.7068 141.183 15.3369 140.211 15.3369H138.427V12.7523ZM146.872 19.3527C148.474 19.3527 149.628 18.5517 149.628 17.1846C149.628 14.333 145.366 15.5398 145.366 13.7242C145.366 13.094 145.911 12.6882 146.808 12.6882C147.727 12.6882 148.325 13.1902 148.4 13.9591H149.478C149.382 12.592 148.336 11.7056 146.808 11.7056C145.302 11.7056 144.256 12.528 144.256 13.7242C144.256 16.4797 148.496 15.401 148.496 17.1953C148.496 18.007 147.812 18.3702 146.872 18.3702C145.815 18.3702 145.185 17.7507 145.099 16.7894H144.021C144.106 18.3381 145.185 19.3527 146.872 19.3527ZM151.068 19.2673H152.179V11.791H151.068V19.2673ZM154.017 19.2673H156.313C158.396 19.2673 160.083 17.9643 160.083 15.5292C160.083 13.094 158.396 11.791 156.313 11.791H154.017V19.2673ZM155.128 18.2847V12.7736H156.249C157.637 12.7736 158.94 13.5533 158.94 15.5292C158.94 17.505 157.637 18.2847 156.249 18.2847H155.128ZM166.367 19.2673H167.521L164.583 11.791H163.558L160.621 19.2673H161.764L162.479 17.3662H165.651L166.367 19.2673ZM162.853 16.3943L164.071 13.1795L165.288 16.3943H162.853ZM168.634 19.2673H170.93C173.013 19.2673 174.7 17.9643 174.7 15.5292C174.7 13.094 173.013 11.791 170.93 11.791H168.634V19.2673ZM169.745 18.2847V12.7736H170.866C172.255 12.7736 173.558 13.5533 173.558 15.5292C173.558 17.505 172.255 18.2847 170.866 18.2847H169.745ZM89.5906 30.9463H94.5036V29.9635H90.7015V27.5818H93.6814V26.5992H90.7015V24.4524H94.3862V23.4698H89.5906V30.9463ZM96.0128 30.9463H97.1234V25.2001L100.733 30.9463H101.962V23.4698H100.851V29.2266L97.2516 23.4698H96.0128V30.9463ZM106.583 30.9463H107.694V23.4698H106.583V30.9463ZM109.532 30.9463H110.643V25.2001L114.252 30.9463H115.481V23.4698H114.37V29.2266L110.771 23.4698H109.532V30.9463ZM119.018 30.9463H120.129V24.4524H122.468V23.4698H116.679V24.4524H119.018V30.9463ZM123.586 30.9463H128.499V29.9635H124.697V27.5818H127.676V26.5992H124.697V24.4524H128.381V23.4698H123.586V30.9463ZM134.259 27.4003C134.921 27.0692 135.359 26.5138 135.359 25.7127C135.359 24.3777 134.44 23.4698 132.934 23.4698H130.008V30.9463H131.118V27.9984H132.988C133.629 27.9984 134.066 28.4683 134.12 29.1305L134.269 30.9463H135.348L135.198 29.0344C135.156 28.3081 134.803 27.7207 134.259 27.4003ZM131.118 24.4311H132.902C133.874 24.4311 134.248 25.0292 134.248 25.7127C134.248 26.3856 133.874 27.0158 132.902 27.0158H131.118V24.4311ZM137.306 30.9463H138.417V25.2001L142.027 30.9463H143.255V23.4698H142.144V29.2266L138.545 23.4698H137.306V30.9463ZM145.094 30.9463H150.008V29.9635H146.205V27.5818H149.185V26.5992H146.205V24.4524H149.89V23.4698H145.094V30.9463ZM153.215 30.9463H154.325V24.4524H156.664V23.4698H150.876V24.4524H153.215V30.9463Z" fill="white"/>
</svg>
